<?xml version="1.0" encoding="UTF-8"?>
<!-- Do not edit this file with editors other than draw.io -->
<!DOCTYPE svg PUBLIC "-//W3C//DTD SVG 1.1//EN" "http://www.w3.org/Graphics/SVG/1.1/DTD/svg11.dtd">
<svg xmlns="http://www.w3.org/2000/svg" style="background: #FFFFFF; background-color: #FFFFFF; color-scheme: light dark;" xmlns:xlink="http://www.w3.org/1999/xlink" version="1.1" width="714px" height="399px" viewBox="0 0 714 399" content="&lt;mxfile host=&quot;app.diagrams.net&quot;&gt;&#10;  &lt;diagram name=&quot;Страница-1&quot; id=&quot;u3kbmDc4rT6RhnqAFDLS&quot;&gt;&#10;    &lt;mxGraphModel dx=&quot;2047&quot; dy=&quot;1337&quot; grid=&quot;0&quot; gridSize=&quot;10&quot; guides=&quot;1&quot; tooltips=&quot;1&quot; connect=&quot;1&quot; arrows=&quot;1&quot; fold=&quot;1&quot; page=&quot;0&quot; pageScale=&quot;1&quot; pageWidth=&quot;827&quot; pageHeight=&quot;1169&quot; background=&quot;light-dark(#FFFFFF,#FFFFFF)&quot; math=&quot;0&quot; shadow=&quot;0&quot;&gt;&#10;      &lt;root&gt;&#10;        &lt;mxCell id=&quot;0&quot; /&gt;&#10;        &lt;mxCell id=&quot;1&quot; parent=&quot;0&quot; /&gt;&#10;        &lt;mxCell id=&quot;2HQ8kbWb5iDc99l9tAFg-2&quot; parent=&quot;1&quot; style=&quot;ellipse;shape=cloud;whiteSpace=wrap;html=1;fillStyle=auto;fillColor=light-dark(#F5F7FA,#F5F7FA);strokeColor=light-dark(#CBD5E1,#CBD5E1);&quot; value=&quot;&amp;lt;font style=&amp;quot;color: rgb(0, 0, 0);&amp;quot;&amp;gt;Интернет&amp;lt;br&amp;gt;wg.vpn.wkorp.ru&amp;lt;/font&amp;gt;&quot; vertex=&quot;1&quot;&gt;&#10;          &lt;mxGeometry height=&quot;84&quot; width=&quot;135&quot; x=&quot;132.5&quot; y=&quot;18&quot; as=&quot;geometry&quot; /&gt;&#10;        &lt;/mxCell&gt;&#10;        &lt;mxCell id=&quot;2HQ8kbWb5iDc99l9tAFg-34&quot; parent=&quot;1&quot; style=&quot;rounded=0;whiteSpace=wrap;html=1;fillColor=light-dark(#FFFFFF,#FFFFFF);fillStyle=auto;&quot; value=&quot;&quot; vertex=&quot;1&quot;&gt;&#10;          &lt;mxGeometry height=&quot;130&quot; width=&quot;120&quot; x=&quot;140&quot; y=&quot;256&quot; as=&quot;geometry&quot; /&gt;&#10;        &lt;/mxCell&gt;&#10;        &lt;mxCell id=&quot;2HQ8kbWb5iDc99l9tAFg-3&quot; parent=&quot;1&quot; style=&quot;text;html=1;whiteSpace=wrap;strokeColor=none;fillColor=light-dark(#FFFFFF,#FFFFFF);align=center;verticalAlign=middle;rounded=0;&quot; value=&quot;IP: 195.133.66.236&quot; vertex=&quot;1&quot;&gt;&#10;          &lt;mxGeometry height=&quot;20&quot; width=&quot;110&quot; x=&quot;145&quot; y=&quot;236&quot; as=&quot;geometry&quot; /&gt;&#10;        &lt;/mxCell&gt;&#10;        &lt;mxCell id=&quot;2HQ8kbWb5iDc99l9tAFg-28&quot; parent=&quot;1&quot; style=&quot;verticalLabelPosition=bottom;html=1;verticalAlign=top;align=center;strokeColor=#0288D1;fillColor=light-dark(#E1F5FE,#E1F5FE);shape=mxgraph.azure.laptop;pointerEvents=1;&quot; value=&quot;&quot; vertex=&quot;1&quot;&gt;&#10;          &lt;mxGeometry height=&quot;30&quot; width=&quot;50&quot; x=&quot;-85&quot; y=&quot;192&quot; as=&quot;geometry&quot; /&gt;&#10;        &lt;/mxCell&gt;&#10;        &lt;mxCell id=&quot;2HQ8kbWb5iDc99l9tAFg-29&quot; parent=&quot;1&quot; style=&quot;text;html=1;whiteSpace=wrap;strokeColor=none;fillColor=light-dark(#FFFFFF,#FFFFFF);align=center;verticalAlign=middle;rounded=0;&quot; value=&quot;Ноутбук DevOps&quot; vertex=&quot;1&quot;&gt;&#10;          &lt;mxGeometry height=&quot;18.5&quot; width=&quot;110&quot; x=&quot;-115&quot; y=&quot;222&quot; as=&quot;geometry&quot; /&gt;&#10;        &lt;/mxCell&gt;&#10;        &lt;mxCell id=&quot;2HQ8kbWb5iDc99l9tAFg-30&quot; parent=&quot;1&quot; style=&quot;sketch=0;aspect=fixed;pointerEvents=1;shadow=0;dashed=0;html=1;strokeColor=#E65100;labelPosition=center;verticalLabelPosition=bottom;verticalAlign=top;align=center;fillColor=light-dark(#FFF3E0,#FFF3E0);shape=mxgraph.mscae.enterprise.client_application&quot; value=&quot;&quot; vertex=&quot;1&quot;&gt;&#10;          &lt;mxGeometry height=&quot;32&quot; width=&quot;50&quot; x=&quot;485&quot; y=&quot;-12&quot; as=&quot;geometry&quot; /&gt;&#10;        &lt;/mxCell&gt;&#10;        &lt;mxCell id=&quot;2HQ8kbWb5iDc99l9tAFg-31&quot; parent=&quot;1&quot; style=&quot;sketch=0;aspect=fixed;pointerEvents=1;shadow=0;dashed=0;html=1;strokeColor=#E65100;labelPosition=center;verticalLabelPosition=bottom;verticalAlign=top;align=center;fillColor=light-dark(#FFF3E0,#FFF3E0);shape=mxgraph.azure.computer&quot; value=&quot;&quot; vertex=&quot;1&quot;&gt;&#10;          &lt;mxGeometry height=&quot;45&quot; width=&quot;50&quot; x=&quot;485&quot; y=&quot;37.5&quot; as=&quot;geometry&quot; /&gt;&#10;        &lt;/mxCell&gt;&#10;        &lt;mxCell id=&quot;2HQ8kbWb5iDc99l9tAFg-32&quot; parent=&quot;1&quot; style=&quot;sketch=0;aspect=fixed;pointerEvents=1;shadow=0;dashed=0;html=1;strokeColor=#E65100;labelPosition=center;verticalLabelPosition=bottom;verticalAlign=top;align=center;fillColor=light-dark(#FFF3E0,#FFF3E0);shape=mxgraph.azure.mobile&quot; value=&quot;&quot; vertex=&quot;1&quot;&gt;&#10;          &lt;mxGeometry height=&quot;50&quot; width=&quot;35&quot; x=&quot;491&quot; y=&quot;100&quot; as=&quot;geometry&quot; /&gt;&#10;        &lt;/mxCell&gt;&#10;        &lt;mxCell id=&quot;2HQ8kbWb5iDc99l9tAFg-35&quot; parent=&quot;1&quot; style=&quot;text;html=1;whiteSpace=wrap;strokeColor=none;fillColor=light-dark(#FFFFFF,#FFFFFF);align=center;verticalAlign=middle;rounded=0;&quot; value=&quot;SSH (Порт 22 TCP)&quot; vertex=&quot;1&quot;&gt;&#10;          &lt;mxGeometry height=&quot;20&quot; width=&quot;110&quot; x=&quot;6&quot; y=&quot;209&quot; as=&quot;geometry&quot; /&gt;&#10;        &lt;/mxCell&gt;&#10;        &lt;mxCell id=&quot;2HQ8kbWb5iDc99l9tAFg-36&quot; parent=&quot;1&quot; style=&quot;text;html=1;whiteSpace=wrap;strokeColor=none;fillColor=light-dark(#FFFFFF,#FFFFFF);align=center;verticalAlign=middle;rounded=0;&quot; value=&quot;Клиенты сети&quot; vertex=&quot;1&quot;&gt;&#10;          &lt;mxGeometry height=&quot;20&quot; width=&quot;110&quot; x=&quot;453.5&quot; y=&quot;160&quot; as=&quot;geometry&quot; /&gt;&#10;        &lt;/mxCell&gt;&#10;        &lt;mxCell id=&quot;2HQ8kbWb5iDc99l9tAFg-37&quot; parent=&quot;1&quot; style=&quot;text;html=1;whiteSpace=wrap;strokeColor=none;fillColor=light-dark(#FFFFFF,#FFFFFF);align=center;verticalAlign=middle;rounded=0;&quot; value=&quot;VPN IP: 10.8.0.10 - 10.8.0.254&quot; vertex=&quot;1&quot;&gt;&#10;          &lt;mxGeometry height=&quot;20&quot; width=&quot;180&quot; x=&quot;418.5&quot; y=&quot;180&quot; as=&quot;geometry&quot; /&gt;&#10;        &lt;/mxCell&gt;&#10;        &lt;mxCell id=&quot;2HQ8kbWb5iDc99l9tAFg-38&quot; parent=&quot;1&quot; style=&quot;sketch=0;aspect=fixed;pointerEvents=1;shadow=0;dashed=0;html=1;strokeColor=none;labelPosition=center;verticalLabelPosition=bottom;verticalAlign=top;align=center;fillColor=#00188D;shape=mxgraph.mscae.enterprise.firewall&quot; value=&quot;&quot; vertex=&quot;1&quot;&gt;&#10;          &lt;mxGeometry height=&quot;44&quot; width=&quot;50&quot; x=&quot;175&quot; y=&quot;185&quot; as=&quot;geometry&quot; /&gt;&#10;        &lt;/mxCell&gt;&#10;        &lt;mxCell id=&quot;lfwxDCiQY-czttKrfWni-6&quot; edge=&quot;1&quot; parent=&quot;1&quot; source=&quot;2HQ8kbWb5iDc99l9tAFg-31&quot; style=&quot;edgeStyle=orthogonalEdgeStyle;rounded=0;orthogonalLoop=1;jettySize=auto;html=1;entryX=0.875;entryY=0.5;entryDx=0;entryDy=0;entryPerimeter=0;strokeColor=light-dark(#E65100,#E65100);dashed=1;&quot; target=&quot;2HQ8kbWb5iDc99l9tAFg-2&quot;&gt;&#10;          &lt;mxGeometry relative=&quot;1&quot; as=&quot;geometry&quot; /&gt;&#10;        &lt;/mxCell&gt;&#10;        &lt;mxCell id=&quot;lfwxDCiQY-czttKrfWni-7&quot; edge=&quot;1&quot; parent=&quot;1&quot; source=&quot;2HQ8kbWb5iDc99l9tAFg-32&quot; style=&quot;edgeStyle=orthogonalEdgeStyle;rounded=0;orthogonalLoop=1;jettySize=auto;html=1;entryX=0.875;entryY=0.5;entryDx=0;entryDy=0;entryPerimeter=0;strokeColor=light-dark(#E65100,#E65100);dashed=1;&quot; target=&quot;2HQ8kbWb5iDc99l9tAFg-2&quot;&gt;&#10;          &lt;mxGeometry relative=&quot;1&quot; as=&quot;geometry&quot;&gt;&#10;            &lt;Array as=&quot;points&quot;&gt;&#10;              &lt;mxPoint x=&quot;395&quot; y=&quot;116&quot; /&gt;&#10;              &lt;mxPoint x=&quot;395&quot; y=&quot;60&quot; /&gt;&#10;            &lt;/Array&gt;&#10;          &lt;/mxGeometry&gt;&#10;        &lt;/mxCell&gt;&#10;        &lt;mxCell id=&quot;lfwxDCiQY-czttKrfWni-8&quot; edge=&quot;1&quot; parent=&quot;1&quot; source=&quot;2HQ8kbWb5iDc99l9tAFg-2&quot; style=&quot;edgeStyle=orthogonalEdgeStyle;rounded=0;orthogonalLoop=1;jettySize=auto;html=1;entryX=0.5;entryY=0;entryDx=0;entryDy=0;entryPerimeter=0;strokeColor=#2E7D32;dashed=1;labelPosition=center;verticalLabelPosition=top;align=center;verticalAlign=bottom;&quot; target=&quot;2HQ8kbWb5iDc99l9tAFg-38&quot;&gt;&#10;          &lt;mxGeometry relative=&quot;1&quot; as=&quot;geometry&quot; /&gt;&#10;        &lt;/mxCell&gt;&#10;        &lt;mxCell id=&quot;lfwxDCiQY-czttKrfWni-11&quot; parent=&quot;1&quot; style=&quot;text;html=1;whiteSpace=wrap;strokeColor=none;fillColor=light-dark(#FFFFFF,#FFFFFF);align=center;verticalAlign=middle;rounded=0;&quot; value=&quot;WireGuard&amp;lt;div&amp;gt;(Порт 51820 UDP)&amp;lt;/div&amp;gt;&quot; vertex=&quot;1&quot;&gt;&#10;          &lt;mxGeometry height=&quot;30&quot; width=&quot;109&quot; x=&quot;145.5&quot; y=&quot;120&quot; as=&quot;geometry&quot; /&gt;&#10;        &lt;/mxCell&gt;&#10;        &lt;mxCell id=&quot;lfwxDCiQY-czttKrfWni-13&quot; edge=&quot;1&quot; parent=&quot;1&quot; source=&quot;2HQ8kbWb5iDc99l9tAFg-30&quot; style=&quot;edgeStyle=orthogonalEdgeStyle;rounded=0;orthogonalLoop=1;jettySize=auto;html=1;entryX=0.875;entryY=0.5;entryDx=0;entryDy=0;entryPerimeter=0;strokeColor=light-dark(#E65100,#E65100);dashed=1;&quot; target=&quot;2HQ8kbWb5iDc99l9tAFg-2&quot;&gt;&#10;          &lt;mxGeometry relative=&quot;1&quot; as=&quot;geometry&quot;&gt;&#10;            &lt;Array as=&quot;points&quot;&gt;&#10;              &lt;mxPoint x=&quot;444&quot; y=&quot;4&quot; /&gt;&#10;              &lt;mxPoint x=&quot;444&quot; y=&quot;60&quot; /&gt;&#10;            &lt;/Array&gt;&#10;          &lt;/mxGeometry&gt;&#10;        &lt;/mxCell&gt;&#10;        &lt;mxCell id=&quot;lfwxDCiQY-czttKrfWni-15&quot; edge=&quot;1&quot; parent=&quot;1&quot; source=&quot;2HQ8kbWb5iDc99l9tAFg-28&quot; style=&quot;edgeStyle=orthogonalEdgeStyle;rounded=0;orthogonalLoop=1;jettySize=auto;html=1;entryX=0;entryY=0.5;entryDx=0;entryDy=0;entryPerimeter=0;strokeColor=light-dark(#0288D1,#0288D1);&quot; target=&quot;2HQ8kbWb5iDc99l9tAFg-38&quot;&gt;&#10;          &lt;mxGeometry relative=&quot;1&quot; as=&quot;geometry&quot; /&gt;&#10;        &lt;/mxCell&gt;&#10;        &lt;mxCell id=&quot;lfwxDCiQY-czttKrfWni-16&quot; edge=&quot;1&quot; parent=&quot;1&quot; source=&quot;2HQ8kbWb5iDc99l9tAFg-28&quot; style=&quot;edgeStyle=orthogonalEdgeStyle;rounded=0;orthogonalLoop=1;jettySize=auto;html=1;entryX=0.16;entryY=0.55;entryDx=0;entryDy=0;entryPerimeter=0;dashed=1;strokeColor=light-dark(#0288D1,#0288D1);&quot; target=&quot;2HQ8kbWb5iDc99l9tAFg-2&quot;&gt;&#10;          &lt;mxGeometry relative=&quot;1&quot; as=&quot;geometry&quot;&gt;&#10;            &lt;Array as=&quot;points&quot;&gt;&#10;              &lt;mxPoint y=&quot;207&quot; /&gt;&#10;              &lt;mxPoint y=&quot;64&quot; /&gt;&#10;            &lt;/Array&gt;&#10;          &lt;/mxGeometry&gt;&#10;        &lt;/mxCell&gt;&#10;      &lt;/root&gt;&#10;    &lt;/mxGraphModel&gt;&#10;  &lt;/diagram&gt;&#10;&lt;/mxfile&gt;&#10;" resource="https://app.diagrams.net/#Hmapsvk%2Fsilver-note%2Fmain%2Fproject-timeweb%2Fscheme-01.svg#%7B%22pageId%22%3A%22u3kbmDc4rT6RhnqAFDLS%22%7D"><defs/><rect fill="#FFFFFF" width="100%" height="100%" x="0" y="0" style="fill: rgb(255, 255, 255);"/><g><g data-cell-id="0"><g data-cell-id="1"><g data-cell-id="2HQ8kbWb5iDc99l9tAFg-2"><g transform="translate(0.5,0.5)"><path d="M 280.25 51 C 253.25 51 246.5 72 268.1 76.2 C 246.5 85.44 270.8 105.6 288.35 97.2 C 300.5 114 341 114 354.5 97.2 C 381.5 97.2 381.5 80.4 364.63 72 C 381.5 55.2 354.5 38.4 330.88 46.8 C 314 34.2 287 34.2 280.25 51 Z" fill="#f5f7fa" stroke="#cbd5e1" stroke-miterlimit="10" pointer-events="all" style="fill: rgb(245, 247, 250); stroke: rgb(203, 213, 225);"/></g><g><g><switch><foreignObject style="overflow: visible; text-align: left;" pointer-events="none" width="100%" height="100%" requiredFeatures="http://www.w3.org/TR/SVG11/feature#Extensibility"><div xmlns="http://www.w3.org/1999/xhtml" style="display: flex; align-items: unsafe center; justify-content: unsafe center; width: 133px; height: 1px; padding-top: 72px; margin-left: 248px;"><div style="box-sizing: border-box; font-size: 0; text-align: center; color: #000000; "><div style="display: inline-block; font-size: 12px; font-family: Helvetica; color: light-dark(#000000, #ffffff); line-height: 1.2; pointer-events: all; white-space: normal; word-wrap: normal; "><font style="color: light-dark(rgb(0, 0, 0), rgb(237, 237, 237));">Интернет<br />wg.vpn.wkorp.ru</font></div></div></div></foreignObject><text x="314" y="76" fill="light-dark(#000000, #ffffff)" font-family="Helvetica" font-size="12px" text-anchor="middle">Интернет&#xa;wg.vpn.wkorp.ru</text></switch></g></g></g><g data-cell-id="2HQ8kbWb5iDc99l9tAFg-34"><g transform="translate(0.5,0.5)"><rect x="254" y="268" width="120" height="130" fill="#ffffff" stroke="#000000" pointer-events="all" style="fill: rgb(255, 255, 255); stroke: light-dark(rgb(0, 0, 0), rgb(255, 255, 255));"/></g></g><g data-cell-id="2HQ8kbWb5iDc99l9tAFg-3"><g transform="translate(0.5,0.5)"><rect x="259" y="248" width="110" height="20" fill="#ffffff" stroke="none" pointer-events="all" style="fill: rgb(255, 255, 255);"/></g><g><g><switch><foreignObject style="overflow: visible; text-align: left;" pointer-events="none" width="100%" height="100%" requiredFeatures="http://www.w3.org/TR/SVG11/feature#Extensibility"><div xmlns="http://www.w3.org/1999/xhtml" style="display: flex; align-items: unsafe center; justify-content: unsafe center; width: 108px; height: 1px; padding-top: 258px; margin-left: 260px;"><div style="box-sizing: border-box; font-size: 0; text-align: center; color: #000000; "><div style="display: inline-block; font-size: 12px; font-family: Helvetica; color: light-dark(#000000, #ffffff); line-height: 1.2; pointer-events: all; white-space: normal; word-wrap: normal; ">IP: 195.133.66.236</div></div></div></foreignObject><text x="314" y="262" fill="light-dark(#000000, #ffffff)" font-family="Helvetica" font-size="12px" text-anchor="middle">IP: 195.133.66.236</text></switch></g></g></g><g data-cell-id="2HQ8kbWb5iDc99l9tAFg-28"><g transform="translate(0.5,0.5)"><rect x="29" y="204" width="50" height="30" fill="none" stroke="none" pointer-events="all"/><path d="M 33.24 227.27 L 33.24 205.35 C 33.55 204.62 34.21 204.11 34.99 204 L 72.86 204 C 73.82 204.11 74.6 204.81 74.81 205.74 L 74.81 227.27 L 78.82 231.61 C 79 232.15 78.83 232.71 78.35 233.16 C 77.88 233.62 77.14 233.92 76.32 234 L 31.73 234 C 30.9 233.93 30.15 233.63 29.66 233.18 C 29.18 232.72 29 232.15 29.18 231.61 Z M 34.89 227.27 L 73.31 227.32 L 73.31 206.19 C 73.13 205.66 72.66 205.28 72.1 205.2 L 35.9 205.2 C 35.35 205.38 34.96 205.87 34.89 206.44 Z M 50.14 230.21 L 48.78 232.16 L 58.21 232.16 L 57.16 230.21 Z" fill="#e1f5fe" stroke="#0288d1" stroke-miterlimit="10" pointer-events="all" style="fill: rgb(225, 245, 254); stroke: light-dark(rgb(2, 136, 209), rgb(45, 160, 223));"/></g></g><g data-cell-id="2HQ8kbWb5iDc99l9tAFg-29"><g transform="translate(0.5,0.5)"><rect x="-1" y="234" width="110" height="18.5" fill="#ffffff" stroke="none" pointer-events="all" style="fill: rgb(255, 255, 255);"/></g><g><g><switch><foreignObject style="overflow: visible; text-align: left;" pointer-events="none" width="100%" height="100%" requiredFeatures="http://www.w3.org/TR/SVG11/feature#Extensibility"><div xmlns="http://www.w3.org/1999/xhtml" style="display: flex; align-items: unsafe center; justify-content: unsafe center; width: 108px; height: 1px; padding-top: 243px; margin-left: 0px;"><div style="box-sizing: border-box; font-size: 0; text-align: center; color: #000000; "><div style="display: inline-block; font-size: 12px; font-family: Helvetica; color: light-dark(#000000, #ffffff); line-height: 1.2; pointer-events: all; white-space: normal; word-wrap: normal; ">Ноутбук DevOps</div></div></div></foreignObject><text x="54" y="247" fill="light-dark(#000000, #ffffff)" font-family="Helvetica" font-size="12px" text-anchor="middle">Ноутбук DevOps</text></switch></g></g></g><g data-cell-id="2HQ8kbWb5iDc99l9tAFg-30"><g transform="translate(0.5,0.5)"><rect x="599" y="0" width="50" height="32" fill="none" stroke="none" pointer-events="all"/><path d="M 601.12 31.99 C 600.51 32 599.93 31.74 599.54 31.26 C 599.15 30.79 599 30.17 599.12 29.57 L 603.13 25.08 L 603.13 2.93 C 603.4 1.21 604.61 0 605.98 0.1 L 643.54 0.1 C 644.36 0.66 644.91 1.73 644.99 2.93 L 644.99 25.03 L 648.94 29.77 C 649 30.32 648.83 30.87 648.47 31.29 C 648.11 31.71 647.59 31.96 647.04 31.99 Z M 619.25 29.67 C 619.19 29.88 619.53 30.08 620.1 30.17 L 628.11 30.12 C 628.54 30.02 628.77 29.85 628.71 29.67 L 627.81 28.26 C 627.55 28.06 627.24 27.95 626.91 27.95 L 621.1 27.95 C 620.75 27.96 620.42 28.08 620.15 28.31 Z M 604.68 24.82 L 643.44 24.82 L 643.44 2.67 C 643.3 2.23 642.97 1.88 642.54 1.72 L 605.98 1.72 C 605.33 1.79 604.8 2.28 604.68 2.93 Z M 610.24 23.21 L 610.24 4.14 L 638.63 4.14 L 638.63 23.21 Z M 611.79 21.6 L 618.15 21.6 L 618.15 9.74 L 611.79 9.74 Z M 619.7 9.74 L 619.7 21.7 L 637.13 21.7 L 637.13 9.74 Z M 624.46 20.03 L 624.46 18.47 L 633.07 18.47 L 633.07 20.03 Z M 633.07 17.56 L 624.46 17.56 L 624.46 16.15 L 633.07 16.15 Z M 624.46 15.24 L 624.46 13.72 L 633.07 13.72 L 633.07 15.24 Z M 633.07 12.82 L 624.46 12.82 L 624.46 11.3 L 633.07 11.3 Z" fill="#fff3e0" stroke="#e65100" stroke-miterlimit="10" pointer-events="all" style="fill: rgb(255, 243, 224); stroke: light-dark(rgb(230, 81, 0), rgb(251, 123, 53));"/></g></g><g data-cell-id="2HQ8kbWb5iDc99l9tAFg-31"><g transform="translate(0.5,0.5)"><rect x="599" y="49.5" width="50" height="45" fill="none" stroke="none" pointer-events="all"/><path d="M 601.33 85.05 C 600.66 84.99 600.05 84.67 599.62 84.16 C 599.2 83.66 599 83.01 599.07 82.36 L 599.07 52.01 C 599.17 50.75 600.15 49.74 601.43 49.56 L 646.14 49.56 C 647.61 49.5 648.87 50.58 649 52.01 L 648.95 82.85 C 648.66 84.15 647.5 85.09 646.14 85.15 L 630.46 85.15 L 629.76 87.94 C 629.6 88.58 629.71 89.26 630.07 89.83 C 630.43 90.39 631.01 90.79 631.67 90.93 C 633.19 91.43 634.79 91.65 636.39 91.56 L 639.31 91.56 L 639.31 94.5 L 606.71 94.5 L 606.71 91.56 L 610.17 91.56 C 611.99 91.57 613.79 91.28 615.5 90.68 C 616.84 90.37 617.67 89.05 617.35 87.74 L 616.9 85.15 Z M 602.79 81.53 L 645.13 81.53 L 645.13 53.33 L 602.79 53.33 Z" fill="#fff3e0" stroke="#e65100" stroke-miterlimit="10" pointer-events="all" style="fill: rgb(255, 243, 224); stroke: light-dark(rgb(230, 81, 0), rgb(251, 123, 53));"/></g></g><g data-cell-id="2HQ8kbWb5iDc99l9tAFg-32"><g transform="translate(0.5,0.5)"><rect x="605" y="112" width="35" height="50" fill="none" stroke="none" pointer-events="all"/><path d="M 605.09 115.88 C 605 114.86 605.37 113.85 606.11 113.12 C 606.85 112.38 607.89 112 608.94 112.06 L 636.36 112.06 C 638.31 112.06 639.92 113.54 640 115.43 L 640 158.83 C 639.9 160.34 638.81 161.61 637.29 162 L 607.9 162 C 606.46 161.7 605.35 160.59 605.09 159.18 Z M 616.64 113.72 C 616.19 113.86 615.88 114.27 615.88 114.73 C 615.88 115.19 616.19 115.59 616.64 115.73 L 628.61 115.73 C 629.06 115.59 629.37 115.19 629.37 114.73 C 629.37 114.27 629.06 113.86 628.61 113.72 Z M 608.58 117.24 L 608.58 153.35 L 636.62 153.35 L 636.62 117.24 Z M 619.76 156.47 C 619.12 156.47 618.59 156.97 618.59 157.6 C 618.59 158.22 619.12 158.73 619.76 158.73 L 625.64 158.73 C 626.29 158.73 626.81 158.22 626.81 157.6 C 626.81 156.97 626.29 156.47 625.64 156.47 Z" fill="#fff3e0" stroke="#e65100" stroke-miterlimit="10" pointer-events="all" style="fill: rgb(255, 243, 224); stroke: light-dark(rgb(230, 81, 0), rgb(251, 123, 53));"/></g></g><g data-cell-id="2HQ8kbWb5iDc99l9tAFg-35"><g transform="translate(0.5,0.5)"><rect x="120" y="221" width="110" height="20" fill="#ffffff" stroke="none" pointer-events="all" style="fill: rgb(255, 255, 255);"/></g><g><g><switch><foreignObject style="overflow: visible; text-align: left;" pointer-events="none" width="100%" height="100%" requiredFeatures="http://www.w3.org/TR/SVG11/feature#Extensibility"><div xmlns="http://www.w3.org/1999/xhtml" style="display: flex; align-items: unsafe center; justify-content: unsafe center; width: 108px; height: 1px; padding-top: 231px; margin-left: 121px;"><div style="box-sizing: border-box; font-size: 0; text-align: center; color: #000000; "><div style="display: inline-block; font-size: 12px; font-family: Helvetica; color: light-dark(#000000, #ffffff); line-height: 1.2; pointer-events: all; white-space: normal; word-wrap: normal; ">SSH (Порт 22 TCP)</div></div></div></foreignObject><text x="175" y="235" fill="light-dark(#000000, #ffffff)" font-family="Helvetica" font-size="12px" text-anchor="middle">SSH (Порт 22 TCP)</text></switch></g></g></g><g data-cell-id="2HQ8kbWb5iDc99l9tAFg-36"><g transform="translate(0.5,0.5)"><rect x="567.5" y="172" width="110" height="20" fill="#ffffff" stroke="none" pointer-events="all" style="fill: rgb(255, 255, 255);"/></g><g><g><switch><foreignObject style="overflow: visible; text-align: left;" pointer-events="none" width="100%" height="100%" requiredFeatures="http://www.w3.org/TR/SVG11/feature#Extensibility"><div xmlns="http://www.w3.org/1999/xhtml" style="display: flex; align-items: unsafe center; justify-content: unsafe center; width: 108px; height: 1px; padding-top: 182px; margin-left: 569px;"><div style="box-sizing: border-box; font-size: 0; text-align: center; color: #000000; "><div style="display: inline-block; font-size: 12px; font-family: Helvetica; color: light-dark(#000000, #ffffff); line-height: 1.2; pointer-events: all; white-space: normal; word-wrap: normal; ">Клиенты сети</div></div></div></foreignObject><text x="623" y="186" fill="light-dark(#000000, #ffffff)" font-family="Helvetica" font-size="12px" text-anchor="middle">Клиенты сети</text></switch></g></g></g><g data-cell-id="2HQ8kbWb5iDc99l9tAFg-37"><g transform="translate(0.5,0.5)"><rect x="532.5" y="192" width="180" height="20" fill="#ffffff" stroke="none" pointer-events="all" style="fill: rgb(255, 255, 255);"/></g><g><g><switch><foreignObject style="overflow: visible; text-align: left;" pointer-events="none" width="100%" height="100%" requiredFeatures="http://www.w3.org/TR/SVG11/feature#Extensibility"><div xmlns="http://www.w3.org/1999/xhtml" style="display: flex; align-items: unsafe center; justify-content: unsafe center; width: 178px; height: 1px; padding-top: 202px; margin-left: 534px;"><div style="box-sizing: border-box; font-size: 0; text-align: center; color: #000000; "><div style="display: inline-block; font-size: 12px; font-family: Helvetica; color: light-dark(#000000, #ffffff); line-height: 1.2; pointer-events: all; white-space: normal; word-wrap: normal; ">VPN IP: 10.8.0.10 - 10.8.0.254</div></div></div></foreignObject><text x="623" y="206" fill="light-dark(#000000, #ffffff)" font-family="Helvetica" font-size="12px" text-anchor="middle">VPN IP: 10.8.0.10 - 10.8.0.254</text></switch></g></g></g><g data-cell-id="2HQ8kbWb5iDc99l9tAFg-38"><g transform="translate(0.5,0.5)"><rect x="289" y="197" width="50" height="44" fill="none" stroke="none" pointer-events="all"/><path d="M 289 241 L 289 231.01 L 312.64 231.01 L 312.64 241 Z M 314 231.01 L 339 231.01 L 339 241 L 314 241 Z M 326.5 229.75 L 326.5 219.71 L 339 219.71 L 339 229.75 Z M 325.04 219.71 L 325.04 229.75 L 302.91 229.75 L 302.91 219.71 Z M 301.55 229.75 L 289 229.75 L 289 219.66 L 301.55 219.66 Z M 312.59 218.44 L 289 218.44 L 289 208.4 L 312.59 208.4 Z M 314 208.4 L 339 208.4 L 339 218.44 L 314.1 218.44 Z M 326.5 207.09 L 326.5 197 L 339 197 L 339 207.09 Z M 325.04 197.05 L 325.04 207.09 L 302.91 207.09 L 302.91 197.05 Z M 301.45 207.09 L 289 207.09 L 289 197.05 L 301.45 197.05 Z" fill="#00188d" stroke="none" pointer-events="all" style="fill: light-dark(rgb(0, 24, 141), rgb(191, 211, 255));"/></g></g><g data-cell-id="lfwxDCiQY-czttKrfWni-6"><g transform="translate(0.5,0.5)"><path d="M 599 72 L 370.99 72" fill="none" stroke="#e65100" stroke-miterlimit="10" stroke-dasharray="3 3" pointer-events="stroke" style="stroke: rgb(230, 81, 0);"/><path d="M 365.74 72 L 372.74 68.5 L 370.99 72 L 372.74 75.5 Z" fill="#e65100" stroke="#e65100" stroke-miterlimit="10" pointer-events="all" style="fill: rgb(230, 81, 0); stroke: rgb(230, 81, 0);"/></g></g><g data-cell-id="lfwxDCiQY-czttKrfWni-7"><g transform="translate(0.5,0.5)"><path d="M 605 128 L 509 128 L 509 72 L 370.99 72" fill="none" stroke="#e65100" stroke-miterlimit="10" stroke-dasharray="3 3" pointer-events="stroke" style="stroke: rgb(230, 81, 0);"/><path d="M 365.74 72 L 372.74 68.5 L 370.99 72 L 372.74 75.5 Z" fill="#e65100" stroke="#e65100" stroke-miterlimit="10" pointer-events="all" style="fill: rgb(230, 81, 0); stroke: rgb(230, 81, 0);"/></g></g><g data-cell-id="lfwxDCiQY-czttKrfWni-8"><g transform="translate(0.5,0.5)"><path d="M 314 114 L 314 190.63" fill="none" stroke="#2e7d32" stroke-miterlimit="10" stroke-dasharray="3 3" pointer-events="stroke" style="stroke: light-dark(rgb(46, 125, 50), rgb(100, 168, 104));"/><path d="M 314 195.88 L 310.5 188.88 L 314 190.63 L 317.5 188.88 Z" fill="#2e7d32" stroke="#2e7d32" stroke-miterlimit="10" pointer-events="all" style="fill: light-dark(rgb(46, 125, 50), rgb(100, 168, 104)); stroke: light-dark(rgb(46, 125, 50), rgb(100, 168, 104));"/></g></g><g data-cell-id="lfwxDCiQY-czttKrfWni-11"><g transform="translate(0.5,0.5)"><rect x="259.5" y="132" width="109" height="30" fill="#ffffff" stroke="none" pointer-events="all" style="fill: rgb(255, 255, 255);"/></g><g><g><switch><foreignObject style="overflow: visible; text-align: left;" pointer-events="none" width="100%" height="100%" requiredFeatures="http://www.w3.org/TR/SVG11/feature#Extensibility"><div xmlns="http://www.w3.org/1999/xhtml" style="display: flex; align-items: unsafe center; justify-content: unsafe center; width: 107px; height: 1px; padding-top: 147px; margin-left: 261px;"><div style="box-sizing: border-box; font-size: 0; text-align: center; color: #000000; "><div style="display: inline-block; font-size: 12px; font-family: Helvetica; color: light-dark(#000000, #ffffff); line-height: 1.2; pointer-events: all; white-space: normal; word-wrap: normal; ">WireGuard<div>(Порт 51820 UDP)</div></div></div></div></foreignObject><text x="314" y="151" fill="light-dark(#000000, #ffffff)" font-family="Helvetica" font-size="12px" text-anchor="middle">WireGuard...</text></switch></g></g></g><g data-cell-id="lfwxDCiQY-czttKrfWni-13"><g transform="translate(0.5,0.5)"><path d="M 599 16 L 558 16 L 558 72 L 370.99 72" fill="none" stroke="#e65100" stroke-miterlimit="10" stroke-dasharray="3 3" pointer-events="stroke" style="stroke: rgb(230, 81, 0);"/><path d="M 365.74 72 L 372.74 68.5 L 370.99 72 L 372.74 75.5 Z" fill="#e65100" stroke="#e65100" stroke-miterlimit="10" pointer-events="all" style="fill: rgb(230, 81, 0); stroke: rgb(230, 81, 0);"/></g></g><g data-cell-id="lfwxDCiQY-czttKrfWni-15"><g transform="translate(0.5,0.5)"><path d="M 79 219 L 282.63 219" fill="none" stroke="#0288d1" stroke-miterlimit="10" pointer-events="stroke" style="stroke: rgb(2, 136, 209);"/><path d="M 287.88 219 L 280.88 222.5 L 282.63 219 L 280.88 215.5 Z" fill="#0288d1" stroke="#0288d1" stroke-miterlimit="10" pointer-events="all" style="fill: rgb(2, 136, 209); stroke: rgb(2, 136, 209);"/></g></g><g data-cell-id="lfwxDCiQY-czttKrfWni-16"><g transform="translate(0.5,0.5)"><path d="M 79 219 L 114 219 L 114 76.17 L 261.73 76.2" fill="none" stroke="#0288d1" stroke-miterlimit="10" stroke-dasharray="3 3" pointer-events="stroke" style="stroke: rgb(2, 136, 209);"/><path d="M 266.98 76.2 L 259.98 79.7 L 261.73 76.2 L 259.98 72.7 Z" fill="#0288d1" stroke="#0288d1" stroke-miterlimit="10" pointer-events="all" style="fill: rgb(2, 136, 209); stroke: rgb(2, 136, 209);"/></g></g></g></g></g><switch><g requiredFeatures="http://www.w3.org/TR/SVG11/feature#Extensibility"/><a transform="translate(0,-5)" xlink:href="https://www.drawio.com/doc/faq/svg-export-text-problems" target="_blank"><text text-anchor="middle" font-size="10px" x="50%" y="100%">Text is not SVG - cannot display</text></a></switch></svg>