<?xml version="1.0" encoding="UTF-8"?>
<!-- Do not edit this file with editors other than draw.io -->
<!DOCTYPE svg PUBLIC "-//W3C//DTD SVG 1.1//EN" "http://www.w3.org/Graphics/SVG/1.1/DTD/svg11.dtd">
<svg xmlns="http://www.w3.org/2000/svg" style="background: transparent; background-color: transparent; color-scheme: light dark;" xmlns:xlink="http://www.w3.org/1999/xlink" version="1.1" width="755px" height="411px" viewBox="0 0 755 411" content="&lt;mxfile host=&quot;app.diagrams.net&quot;&gt;&#10;  &lt;diagram name=&quot;Страница-1&quot; id=&quot;u3kbmDc4rT6RhnqAFDLS&quot;&gt;&#10;    &lt;mxGraphModel dx=&quot;1925&quot; dy=&quot;1793&quot; grid=&quot;1&quot; gridSize=&quot;10&quot; guides=&quot;1&quot; tooltips=&quot;1&quot; connect=&quot;1&quot; arrows=&quot;1&quot; fold=&quot;1&quot; page=&quot;1&quot; pageScale=&quot;1&quot; pageWidth=&quot;827&quot; pageHeight=&quot;1169&quot; math=&quot;0&quot; shadow=&quot;0&quot;&gt;&#10;      &lt;root&gt;&#10;        &lt;mxCell id=&quot;0&quot; /&gt;&#10;        &lt;mxCell id=&quot;1&quot; parent=&quot;0&quot; /&gt;&#10;        &lt;mxCell id=&quot;2HQ8kbWb5iDc99l9tAFg-2&quot; parent=&quot;1&quot; style=&quot;ellipse;shape=cloud;whiteSpace=wrap;html=1;fillStyle=auto;fillColor=#F5F7FA;strokeColor=#CBD5E1;&quot; value=&quot;Интернет&quot; vertex=&quot;1&quot;&gt;&#10;          &lt;mxGeometry height=&quot;80&quot; width=&quot;120&quot; x=&quot;135&quot; y=&quot;-90&quot; as=&quot;geometry&quot; /&gt;&#10;        &lt;/mxCell&gt;&#10;        &lt;mxCell id=&quot;2HQ8kbWb5iDc99l9tAFg-3&quot; parent=&quot;1&quot; style=&quot;text;html=1;whiteSpace=wrap;strokeColor=none;fillColor=none;align=center;verticalAlign=middle;rounded=0;&quot; value=&quot;IP: 195.133.66.236&quot; vertex=&quot;1&quot;&gt;&#10;          &lt;mxGeometry height=&quot;20&quot; width=&quot;110&quot; x=&quot;145&quot; y=&quot;160&quot; as=&quot;geometry&quot; /&gt;&#10;        &lt;/mxCell&gt;&#10;        &lt;mxCell id=&quot;2HQ8kbWb5iDc99l9tAFg-33&quot; edge=&quot;1&quot; parent=&quot;1&quot; source=&quot;2HQ8kbWb5iDc99l9tAFg-28&quot; style=&quot;edgeStyle=orthogonalEdgeStyle;rounded=0;orthogonalLoop=1;jettySize=auto;html=1;entryX=0;entryY=0.5;entryDx=0;entryDy=0;strokeColor=#0288D1;&quot; target=&quot;2HQ8kbWb5iDc99l9tAFg-3&quot;&gt;&#10;          &lt;mxGeometry relative=&quot;1&quot; as=&quot;geometry&quot; /&gt;&#10;        &lt;/mxCell&gt;&#10;        &lt;mxCell id=&quot;2HQ8kbWb5iDc99l9tAFg-28&quot; parent=&quot;1&quot; style=&quot;verticalLabelPosition=bottom;html=1;verticalAlign=top;align=center;strokeColor=#0288D1;fillColor=#E1F5FE;shape=mxgraph.azure.laptop;pointerEvents=1;&quot; value=&quot;&quot; vertex=&quot;1&quot;&gt;&#10;          &lt;mxGeometry height=&quot;30&quot; width=&quot;50&quot; x=&quot;-130&quot; y=&quot;155&quot; as=&quot;geometry&quot; /&gt;&#10;        &lt;/mxCell&gt;&#10;        &lt;mxCell id=&quot;2HQ8kbWb5iDc99l9tAFg-29&quot; parent=&quot;1&quot; style=&quot;text;html=1;whiteSpace=wrap;strokeColor=none;fillColor=none;align=center;verticalAlign=middle;rounded=0;&quot; value=&quot;Ноутбук DevOps&quot; vertex=&quot;1&quot;&gt;&#10;          &lt;mxGeometry height=&quot;20&quot; width=&quot;110&quot; x=&quot;-160&quot; y=&quot;185&quot; as=&quot;geometry&quot; /&gt;&#10;        &lt;/mxCell&gt;&#10;        &lt;mxCell id=&quot;2HQ8kbWb5iDc99l9tAFg-40&quot; edge=&quot;1&quot; parent=&quot;1&quot; source=&quot;2HQ8kbWb5iDc99l9tAFg-30&quot; style=&quot;edgeStyle=orthogonalEdgeStyle;rounded=0;orthogonalLoop=1;jettySize=auto;html=1;entryX=1;entryY=0.25;entryDx=0;entryDy=0;&quot; target=&quot;2HQ8kbWb5iDc99l9tAFg-3&quot;&gt;&#10;          &lt;mxGeometry relative=&quot;1&quot; as=&quot;geometry&quot;&gt;&#10;            &lt;Array as=&quot;points&quot;&gt;&#10;              &lt;mxPoint x=&quot;360&quot; y=&quot;109&quot; /&gt;&#10;              &lt;mxPoint x=&quot;360&quot; y=&quot;165&quot; /&gt;&#10;            &lt;/Array&gt;&#10;          &lt;/mxGeometry&gt;&#10;        &lt;/mxCell&gt;&#10;        &lt;mxCell id=&quot;2HQ8kbWb5iDc99l9tAFg-30&quot; parent=&quot;1&quot; style=&quot;sketch=0;aspect=fixed;pointerEvents=1;shadow=0;dashed=0;html=1;strokeColor=#E65100;labelPosition=center;verticalLabelPosition=bottom;verticalAlign=top;align=center;fillColor=#FFF3E0;shape=mxgraph.mscae.enterprise.client_application&quot; value=&quot;&quot; vertex=&quot;1&quot;&gt;&#10;          &lt;mxGeometry height=&quot;32&quot; width=&quot;50&quot; x=&quot;480&quot; y=&quot;93&quot; as=&quot;geometry&quot; /&gt;&#10;        &lt;/mxCell&gt;&#10;        &lt;mxCell id=&quot;2HQ8kbWb5iDc99l9tAFg-44&quot; edge=&quot;1&quot; parent=&quot;1&quot; source=&quot;2HQ8kbWb5iDc99l9tAFg-31&quot; style=&quot;edgeStyle=orthogonalEdgeStyle;rounded=0;orthogonalLoop=1;jettySize=auto;html=1;exitX=0;exitY=0.5;exitDx=0;exitDy=0;exitPerimeter=0;entryX=1;entryY=0.5;entryDx=0;entryDy=0;&quot; target=&quot;2HQ8kbWb5iDc99l9tAFg-3&quot;&gt;&#10;          &lt;mxGeometry relative=&quot;1&quot; as=&quot;geometry&quot; /&gt;&#10;        &lt;/mxCell&gt;&#10;        &lt;mxCell id=&quot;2HQ8kbWb5iDc99l9tAFg-31&quot; parent=&quot;1&quot; style=&quot;sketch=0;aspect=fixed;pointerEvents=1;shadow=0;dashed=0;html=1;strokeColor=#E65100;labelPosition=center;verticalLabelPosition=bottom;verticalAlign=top;align=center;fillColor=#FFF3E0;shape=mxgraph.azure.computer&quot; value=&quot;&quot; vertex=&quot;1&quot;&gt;&#10;          &lt;mxGeometry height=&quot;45&quot; width=&quot;50&quot; x=&quot;480&quot; y=&quot;148&quot; as=&quot;geometry&quot; /&gt;&#10;        &lt;/mxCell&gt;&#10;        &lt;mxCell id=&quot;2HQ8kbWb5iDc99l9tAFg-46&quot; edge=&quot;1&quot; parent=&quot;1&quot; source=&quot;2HQ8kbWb5iDc99l9tAFg-32&quot; style=&quot;edgeStyle=orthogonalEdgeStyle;rounded=0;orthogonalLoop=1;jettySize=auto;html=1;entryX=1;entryY=0.75;entryDx=0;entryDy=0;&quot; target=&quot;2HQ8kbWb5iDc99l9tAFg-3&quot;&gt;&#10;          &lt;mxGeometry relative=&quot;1&quot; as=&quot;geometry&quot;&gt;&#10;            &lt;Array as=&quot;points&quot;&gt;&#10;              &lt;mxPoint x=&quot;360&quot; y=&quot;245&quot; /&gt;&#10;              &lt;mxPoint x=&quot;360&quot; y=&quot;175&quot; /&gt;&#10;            &lt;/Array&gt;&#10;          &lt;/mxGeometry&gt;&#10;        &lt;/mxCell&gt;&#10;        &lt;mxCell id=&quot;2HQ8kbWb5iDc99l9tAFg-32&quot; parent=&quot;1&quot; style=&quot;sketch=0;aspect=fixed;pointerEvents=1;shadow=0;dashed=0;html=1;strokeColor=#E65100;labelPosition=center;verticalLabelPosition=bottom;verticalAlign=top;align=center;fillColor=#FFF3E0;shape=mxgraph.azure.mobile&quot; value=&quot;&quot; vertex=&quot;1&quot;&gt;&#10;          &lt;mxGeometry height=&quot;50&quot; width=&quot;35&quot; x=&quot;487.5&quot; y=&quot;220&quot; as=&quot;geometry&quot; /&gt;&#10;        &lt;/mxCell&gt;&#10;        &lt;mxCell id=&quot;2HQ8kbWb5iDc99l9tAFg-34&quot; parent=&quot;1&quot; style=&quot;rounded=0;whiteSpace=wrap;html=1;&quot; value=&quot;&quot; vertex=&quot;1&quot;&gt;&#10;          &lt;mxGeometry height=&quot;130&quot; width=&quot;120&quot; x=&quot;140&quot; y=&quot;180&quot; as=&quot;geometry&quot; /&gt;&#10;        &lt;/mxCell&gt;&#10;        &lt;mxCell id=&quot;2HQ8kbWb5iDc99l9tAFg-35&quot; parent=&quot;1&quot; style=&quot;text;html=1;whiteSpace=wrap;strokeColor=none;fillColor=none;align=center;verticalAlign=middle;rounded=0;&quot; value=&quot;SSH (Порт 22 TCP)&quot; vertex=&quot;1&quot;&gt;&#10;          &lt;mxGeometry height=&quot;20&quot; width=&quot;110&quot; x=&quot;-40&quot; y=&quot;170&quot; as=&quot;geometry&quot; /&gt;&#10;        &lt;/mxCell&gt;&#10;        &lt;mxCell id=&quot;2HQ8kbWb5iDc99l9tAFg-36&quot; parent=&quot;1&quot; style=&quot;text;html=1;whiteSpace=wrap;strokeColor=none;fillColor=none;align=center;verticalAlign=middle;rounded=0;&quot; value=&quot;Клиенты сети&quot; vertex=&quot;1&quot;&gt;&#10;          &lt;mxGeometry height=&quot;20&quot; width=&quot;110&quot; x=&quot;450&quot; y=&quot;280&quot; as=&quot;geometry&quot; /&gt;&#10;        &lt;/mxCell&gt;&#10;        &lt;mxCell id=&quot;2HQ8kbWb5iDc99l9tAFg-37&quot; parent=&quot;1&quot; style=&quot;text;html=1;whiteSpace=wrap;strokeColor=none;fillColor=none;align=center;verticalAlign=middle;rounded=0;&quot; value=&quot;VPN IP: 10.8.0.10 - 10.8.0.254&quot; vertex=&quot;1&quot;&gt;&#10;          &lt;mxGeometry height=&quot;20&quot; width=&quot;180&quot; x=&quot;415&quot; y=&quot;300&quot; as=&quot;geometry&quot; /&gt;&#10;        &lt;/mxCell&gt;&#10;        &lt;mxCell id=&quot;2HQ8kbWb5iDc99l9tAFg-38&quot; parent=&quot;1&quot; style=&quot;sketch=0;aspect=fixed;pointerEvents=1;shadow=0;dashed=0;html=1;strokeColor=none;labelPosition=center;verticalLabelPosition=bottom;verticalAlign=top;align=center;fillColor=#00188D;shape=mxgraph.mscae.enterprise.firewall&quot; value=&quot;&quot; vertex=&quot;1&quot;&gt;&#10;          &lt;mxGeometry height=&quot;44&quot; width=&quot;50&quot; x=&quot;40&quot; y=&quot;30&quot; as=&quot;geometry&quot; /&gt;&#10;        &lt;/mxCell&gt;&#10;        &lt;mxCell id=&quot;2HQ8kbWb5iDc99l9tAFg-39&quot; parent=&quot;1&quot; style=&quot;text;html=1;whiteSpace=wrap;strokeColor=none;fillColor=none;align=center;verticalAlign=middle;rounded=0;&quot; value=&quot;(wkorp.ru)&quot; vertex=&quot;1&quot;&gt;&#10;          &lt;mxGeometry height=&quot;30&quot; width=&quot;60&quot; x=&quot;165&quot; y=&quot;130&quot; as=&quot;geometry&quot; /&gt;&#10;        &lt;/mxCell&gt;&#10;      &lt;/root&gt;&#10;    &lt;/mxGraphModel&gt;&#10;  &lt;/diagram&gt;&#10;&lt;/mxfile&gt;&#10;" resource="https://app.diagrams.net/#Hmapsvk%2Fsilver-note%2Fmain%2Fproject-timeweb%2Fscheme-01.svg"><defs/><g><g data-cell-id="0"><g data-cell-id="1"><g data-cell-id="2HQ8kbWb5iDc99l9tAFg-2"><g transform="translate(0.5,0.5)"><path d="M 325 20 C 301 20 295 40 314.2 44 C 295 52.8 316.6 72 332.2 64 C 343 80 379 80 391 64 C 415 64 415 48 400 40 C 415 24 391 8 370 16 C 355 4 331 4 325 20 Z" fill="#f5f7fa" stroke="#cbd5e1" stroke-miterlimit="10" pointer-events="all" style="fill: light-dark(rgb(245, 247, 250), rgb(24, 25, 28)); stroke: light-dark(rgb(203, 213, 225), rgb(47, 56, 66));"/></g><g><g><switch><foreignObject style="overflow: visible; text-align: left;" pointer-events="none" width="100%" height="100%" requiredFeatures="http://www.w3.org/TR/SVG11/feature#Extensibility"><div xmlns="http://www.w3.org/1999/xhtml" style="display: flex; align-items: unsafe center; justify-content: unsafe center; width: 118px; height: 1px; padding-top: 40px; margin-left: 296px;"><div style="box-sizing: border-box; font-size: 0; text-align: center; color: #000000; "><div style="display: inline-block; font-size: 12px; font-family: Helvetica; color: light-dark(#000000, #ffffff); line-height: 1.2; pointer-events: all; white-space: normal; word-wrap: normal; ">Интернет</div></div></div></foreignObject><text x="355" y="44" fill="light-dark(#000000, #ffffff)" font-family="Helvetica" font-size="12px" text-anchor="middle">Интернет</text></switch></g></g></g><g data-cell-id="2HQ8kbWb5iDc99l9tAFg-3"><g transform="translate(0.5,0.5)"><rect x="305" y="250" width="110" height="20" fill="none" stroke="none" pointer-events="all"/></g><g><g><switch><foreignObject style="overflow: visible; text-align: left;" pointer-events="none" width="100%" height="100%" requiredFeatures="http://www.w3.org/TR/SVG11/feature#Extensibility"><div xmlns="http://www.w3.org/1999/xhtml" style="display: flex; align-items: unsafe center; justify-content: unsafe center; width: 108px; height: 1px; padding-top: 260px; margin-left: 306px;"><div style="box-sizing: border-box; font-size: 0; text-align: center; color: #000000; "><div style="display: inline-block; font-size: 12px; font-family: Helvetica; color: light-dark(#000000, #ffffff); line-height: 1.2; pointer-events: all; white-space: normal; word-wrap: normal; ">IP: 195.133.66.236</div></div></div></foreignObject><text x="360" y="264" fill="light-dark(#000000, #ffffff)" font-family="Helvetica" font-size="12px" text-anchor="middle">IP: 195.133.66.236</text></switch></g></g></g><g data-cell-id="2HQ8kbWb5iDc99l9tAFg-33"><g transform="translate(0.5,0.5)"><path d="M 80 260 L 298.63 260" fill="none" stroke="#0288d1" stroke-miterlimit="10" pointer-events="stroke" style="stroke: light-dark(rgb(2, 136, 209), rgb(45, 160, 223));"/><path d="M 303.88 260 L 296.88 263.5 L 298.63 260 L 296.88 256.5 Z" fill="#0288d1" stroke="#0288d1" stroke-miterlimit="10" pointer-events="all" style="fill: light-dark(rgb(2, 136, 209), rgb(45, 160, 223)); stroke: light-dark(rgb(2, 136, 209), rgb(45, 160, 223));"/></g></g><g data-cell-id="2HQ8kbWb5iDc99l9tAFg-28"><g transform="translate(0.5,0.5)"><rect x="30" y="245" width="50" height="30" fill="none" stroke="none" pointer-events="all"/><path d="M 34.24 268.27 L 34.24 246.35 C 34.55 245.62 35.21 245.11 35.99 245 L 73.86 245 C 74.82 245.11 75.6 245.81 75.81 246.74 L 75.81 268.27 L 79.82 272.61 C 80 273.15 79.83 273.71 79.35 274.16 C 78.88 274.62 78.14 274.92 77.32 275 L 32.73 275 C 31.9 274.93 31.15 274.63 30.66 274.18 C 30.18 273.72 30 273.15 30.18 272.61 Z M 35.89 268.27 L 74.31 268.32 L 74.31 247.19 C 74.13 246.66 73.66 246.28 73.1 246.2 L 36.9 246.2 C 36.35 246.38 35.96 246.87 35.89 247.44 Z M 51.14 271.21 L 49.78 273.16 L 59.21 273.16 L 58.16 271.21 Z" fill="#e1f5fe" stroke="#0288d1" stroke-miterlimit="10" pointer-events="all" style="fill: light-dark(rgb(225, 245, 254), rgb(15, 33, 40)); stroke: light-dark(rgb(2, 136, 209), rgb(45, 160, 223));"/></g></g><g data-cell-id="2HQ8kbWb5iDc99l9tAFg-29"><g transform="translate(0.5,0.5)"><rect x="0" y="275" width="110" height="20" fill="none" stroke="none" pointer-events="all"/></g><g><g><switch><foreignObject style="overflow: visible; text-align: left;" pointer-events="none" width="100%" height="100%" requiredFeatures="http://www.w3.org/TR/SVG11/feature#Extensibility"><div xmlns="http://www.w3.org/1999/xhtml" style="display: flex; align-items: unsafe center; justify-content: unsafe center; width: 108px; height: 1px; padding-top: 285px; margin-left: 1px;"><div style="box-sizing: border-box; font-size: 0; text-align: center; color: #000000; "><div style="display: inline-block; font-size: 12px; font-family: Helvetica; color: light-dark(#000000, #ffffff); line-height: 1.2; pointer-events: all; white-space: normal; word-wrap: normal; ">Ноутбук DevOps</div></div></div></foreignObject><text x="55" y="289" fill="light-dark(#000000, #ffffff)" font-family="Helvetica" font-size="12px" text-anchor="middle">Ноутбук DevOps</text></switch></g></g></g><g data-cell-id="2HQ8kbWb5iDc99l9tAFg-40"><g transform="translate(0.5,0.5)"><path d="M 640 199 L 520 199 L 520 255 L 421.37 255" fill="none" stroke="#000000" stroke-miterlimit="10" pointer-events="stroke" style="stroke: light-dark(rgb(0, 0, 0), rgb(255, 255, 255));"/><path d="M 416.12 255 L 423.12 251.5 L 421.37 255 L 423.12 258.5 Z" fill="#000000" stroke="#000000" stroke-miterlimit="10" pointer-events="all" style="fill: light-dark(rgb(0, 0, 0), rgb(255, 255, 255)); stroke: light-dark(rgb(0, 0, 0), rgb(255, 255, 255));"/></g></g><g data-cell-id="2HQ8kbWb5iDc99l9tAFg-30"><g transform="translate(0.5,0.5)"><rect x="640" y="183" width="50" height="32" fill="none" stroke="none" pointer-events="all"/><path d="M 642.12 214.99 C 641.51 215 640.93 214.74 640.54 214.26 C 640.15 213.79 640 213.17 640.12 212.57 L 644.13 208.08 L 644.13 185.93 C 644.4 184.21 645.61 183 646.98 183.1 L 684.54 183.1 C 685.36 183.66 685.91 184.73 685.99 185.93 L 685.99 208.03 L 689.94 212.77 C 690 213.32 689.83 213.87 689.47 214.29 C 689.11 214.71 688.59 214.96 688.04 214.99 Z M 660.25 212.67 C 660.19 212.88 660.53 213.08 661.1 213.17 L 669.11 213.12 C 669.54 213.02 669.77 212.85 669.71 212.67 L 668.81 211.26 C 668.55 211.06 668.24 210.95 667.91 210.95 L 662.1 210.95 C 661.75 210.96 661.42 211.08 661.15 211.31 Z M 645.68 207.82 L 684.44 207.82 L 684.44 185.67 C 684.3 185.23 683.97 184.88 683.54 184.72 L 646.98 184.72 C 646.33 184.79 645.8 185.28 645.68 185.93 Z M 651.24 206.21 L 651.24 187.14 L 679.63 187.14 L 679.63 206.21 Z M 652.79 204.6 L 659.15 204.6 L 659.15 192.74 L 652.79 192.74 Z M 660.7 192.74 L 660.7 204.7 L 678.13 204.7 L 678.13 192.74 Z M 665.46 203.03 L 665.46 201.47 L 674.07 201.47 L 674.07 203.03 Z M 674.07 200.56 L 665.46 200.56 L 665.46 199.15 L 674.07 199.15 Z M 665.46 198.24 L 665.46 196.72 L 674.07 196.72 L 674.07 198.24 Z M 674.07 195.82 L 665.46 195.82 L 665.46 194.3 L 674.07 194.3 Z" fill="#fff3e0" stroke="#e65100" stroke-miterlimit="10" pointer-events="all" style="fill: light-dark(rgb(255, 243, 224), rgb(36, 26, 9)); stroke: light-dark(rgb(230, 81, 0), rgb(251, 123, 53));"/></g></g><g data-cell-id="2HQ8kbWb5iDc99l9tAFg-44"><g transform="translate(0.5,0.5)"><path d="M 640 260.5 L 527.5 260.5 L 421.37 260.03" fill="none" stroke="#000000" stroke-miterlimit="10" pointer-events="stroke" style="stroke: light-dark(rgb(0, 0, 0), rgb(255, 255, 255));"/><path d="M 416.12 260 L 423.13 256.54 L 421.37 260.03 L 423.1 263.54 Z" fill="#000000" stroke="#000000" stroke-miterlimit="10" pointer-events="all" style="fill: light-dark(rgb(0, 0, 0), rgb(255, 255, 255)); stroke: light-dark(rgb(0, 0, 0), rgb(255, 255, 255));"/></g></g><g data-cell-id="2HQ8kbWb5iDc99l9tAFg-31"><g transform="translate(0.5,0.5)"><rect x="640" y="238" width="50" height="45" fill="none" stroke="none" pointer-events="all"/><path d="M 642.33 273.55 C 641.66 273.49 641.05 273.17 640.62 272.66 C 640.2 272.16 640 271.51 640.07 270.86 L 640.07 240.51 C 640.17 239.25 641.15 238.24 642.43 238.06 L 687.14 238.06 C 688.61 238 689.87 239.08 690 240.51 L 689.95 271.35 C 689.66 272.65 688.5 273.59 687.14 273.65 L 671.46 273.65 L 670.76 276.44 C 670.6 277.08 670.71 277.76 671.07 278.33 C 671.43 278.89 672.01 279.29 672.67 279.43 C 674.19 279.93 675.79 280.15 677.39 280.06 L 680.31 280.06 L 680.31 283 L 647.71 283 L 647.71 280.06 L 651.17 280.06 C 652.99 280.07 654.79 279.78 656.5 279.18 C 657.84 278.87 658.67 277.55 658.35 276.24 L 657.9 273.65 Z M 643.79 270.03 L 686.13 270.03 L 686.13 241.83 L 643.79 241.83 Z" fill="#fff3e0" stroke="#e65100" stroke-miterlimit="10" pointer-events="all" style="fill: light-dark(rgb(255, 243, 224), rgb(36, 26, 9)); stroke: light-dark(rgb(230, 81, 0), rgb(251, 123, 53));"/></g></g><g data-cell-id="2HQ8kbWb5iDc99l9tAFg-46"><g transform="translate(0.5,0.5)"><path d="M 647.5 335 L 520 335 L 520 265 L 421.37 265" fill="none" stroke="#000000" stroke-miterlimit="10" pointer-events="stroke" style="stroke: light-dark(rgb(0, 0, 0), rgb(255, 255, 255));"/><path d="M 416.12 265 L 423.12 261.5 L 421.37 265 L 423.12 268.5 Z" fill="#000000" stroke="#000000" stroke-miterlimit="10" pointer-events="all" style="fill: light-dark(rgb(0, 0, 0), rgb(255, 255, 255)); stroke: light-dark(rgb(0, 0, 0), rgb(255, 255, 255));"/></g></g><g data-cell-id="2HQ8kbWb5iDc99l9tAFg-32"><g transform="translate(0.5,0.5)"><rect x="647.5" y="310" width="35" height="50" fill="none" stroke="none" pointer-events="all"/><path d="M 647.59 313.88 C 647.5 312.86 647.87 311.85 648.61 311.12 C 649.35 310.38 650.39 310 651.44 310.06 L 678.86 310.06 C 680.81 310.06 682.42 311.54 682.5 313.43 L 682.5 356.83 C 682.4 358.34 681.31 359.61 679.79 360 L 650.4 360 C 648.96 359.7 647.85 358.59 647.59 357.18 Z M 659.14 311.72 C 658.69 311.86 658.38 312.27 658.38 312.73 C 658.38 313.19 658.69 313.59 659.14 313.73 L 671.11 313.73 C 671.56 313.59 671.87 313.19 671.87 312.73 C 671.87 312.27 671.56 311.86 671.11 311.72 Z M 651.08 315.24 L 651.08 351.35 L 679.12 351.35 L 679.12 315.24 Z M 662.26 354.47 C 661.62 354.47 661.09 354.97 661.09 355.6 C 661.09 356.22 661.62 356.73 662.26 356.73 L 668.14 356.73 C 668.79 356.73 669.31 356.22 669.31 355.6 C 669.31 354.97 668.79 354.47 668.14 354.47 Z" fill="#fff3e0" stroke="#e65100" stroke-miterlimit="10" pointer-events="all" style="fill: light-dark(rgb(255, 243, 224), rgb(36, 26, 9)); stroke: light-dark(rgb(230, 81, 0), rgb(251, 123, 53));"/></g></g><g data-cell-id="2HQ8kbWb5iDc99l9tAFg-34"><g transform="translate(0.5,0.5)"><rect x="300" y="270" width="120" height="130" fill="#ffffff" stroke="#000000" pointer-events="all" style="fill: light-dark(#ffffff, var(--ge-dark-color, #121212)); stroke: light-dark(rgb(0, 0, 0), rgb(255, 255, 255));"/></g></g><g data-cell-id="2HQ8kbWb5iDc99l9tAFg-35"><g transform="translate(0.5,0.5)"><rect x="120" y="260" width="110" height="20" fill="none" stroke="none" pointer-events="all"/></g><g><g><switch><foreignObject style="overflow: visible; text-align: left;" pointer-events="none" width="100%" height="100%" requiredFeatures="http://www.w3.org/TR/SVG11/feature#Extensibility"><div xmlns="http://www.w3.org/1999/xhtml" style="display: flex; align-items: unsafe center; justify-content: unsafe center; width: 108px; height: 1px; padding-top: 270px; margin-left: 121px;"><div style="box-sizing: border-box; font-size: 0; text-align: center; color: #000000; "><div style="display: inline-block; font-size: 12px; font-family: Helvetica; color: light-dark(#000000, #ffffff); line-height: 1.2; pointer-events: all; white-space: normal; word-wrap: normal; ">SSH (Порт 22 TCP)</div></div></div></foreignObject><text x="175" y="274" fill="light-dark(#000000, #ffffff)" font-family="Helvetica" font-size="12px" text-anchor="middle">SSH (Порт 22 TCP)</text></switch></g></g></g><g data-cell-id="2HQ8kbWb5iDc99l9tAFg-36"><g transform="translate(0.5,0.5)"><rect x="610" y="370" width="110" height="20" fill="none" stroke="none" pointer-events="all"/></g><g><g><switch><foreignObject style="overflow: visible; text-align: left;" pointer-events="none" width="100%" height="100%" requiredFeatures="http://www.w3.org/TR/SVG11/feature#Extensibility"><div xmlns="http://www.w3.org/1999/xhtml" style="display: flex; align-items: unsafe center; justify-content: unsafe center; width: 108px; height: 1px; padding-top: 380px; margin-left: 611px;"><div style="box-sizing: border-box; font-size: 0; text-align: center; color: #000000; "><div style="display: inline-block; font-size: 12px; font-family: Helvetica; color: light-dark(#000000, #ffffff); line-height: 1.2; pointer-events: all; white-space: normal; word-wrap: normal; ">Клиенты сети</div></div></div></foreignObject><text x="665" y="384" fill="light-dark(#000000, #ffffff)" font-family="Helvetica" font-size="12px" text-anchor="middle">Клиенты сети</text></switch></g></g></g><g data-cell-id="2HQ8kbWb5iDc99l9tAFg-37"><g transform="translate(0.5,0.5)"><rect x="575" y="390" width="180" height="20" fill="none" stroke="none" pointer-events="all"/></g><g><g><switch><foreignObject style="overflow: visible; text-align: left;" pointer-events="none" width="100%" height="100%" requiredFeatures="http://www.w3.org/TR/SVG11/feature#Extensibility"><div xmlns="http://www.w3.org/1999/xhtml" style="display: flex; align-items: unsafe center; justify-content: unsafe center; width: 178px; height: 1px; padding-top: 400px; margin-left: 576px;"><div style="box-sizing: border-box; font-size: 0; text-align: center; color: #000000; "><div style="display: inline-block; font-size: 12px; font-family: Helvetica; color: light-dark(#000000, #ffffff); line-height: 1.2; pointer-events: all; white-space: normal; word-wrap: normal; ">VPN IP: 10.8.0.10 - 10.8.0.254</div></div></div></foreignObject><text x="665" y="404" fill="light-dark(#000000, #ffffff)" font-family="Helvetica" font-size="12px" text-anchor="middle">VPN IP: 10.8.0.10 - 10.8.0.254</text></switch></g></g></g><g data-cell-id="2HQ8kbWb5iDc99l9tAFg-38"><g transform="translate(0.5,0.5)"><rect x="200" y="120" width="50" height="44" fill="none" stroke="none" pointer-events="all"/><path d="M 200 164 L 200 154.01 L 223.64 154.01 L 223.64 164 Z M 225 154.01 L 250 154.01 L 250 164 L 225 164 Z M 237.5 152.75 L 237.5 142.71 L 250 142.71 L 250 152.75 Z M 236.04 142.71 L 236.04 152.75 L 213.91 152.75 L 213.91 142.71 Z M 212.55 152.75 L 200 152.75 L 200 142.66 L 212.55 142.66 Z M 223.59 141.44 L 200 141.44 L 200 131.4 L 223.59 131.4 Z M 225 131.4 L 250 131.4 L 250 141.44 L 225.1 141.44 Z M 237.5 130.09 L 237.5 120 L 250 120 L 250 130.09 Z M 236.04 120.05 L 236.04 130.09 L 213.91 130.09 L 213.91 120.05 Z M 212.45 130.09 L 200 130.09 L 200 120.05 L 212.45 120.05 Z" fill="#00188d" stroke="none" pointer-events="all" style="fill: light-dark(rgb(0, 24, 141), rgb(191, 211, 255));"/></g></g><g data-cell-id="2HQ8kbWb5iDc99l9tAFg-39"><g transform="translate(0.5,0.5)"><rect x="325" y="220" width="60" height="30" fill="none" stroke="none" pointer-events="all"/></g><g><g><switch><foreignObject style="overflow: visible; text-align: left;" pointer-events="none" width="100%" height="100%" requiredFeatures="http://www.w3.org/TR/SVG11/feature#Extensibility"><div xmlns="http://www.w3.org/1999/xhtml" style="display: flex; align-items: unsafe center; justify-content: unsafe center; width: 58px; height: 1px; padding-top: 235px; margin-left: 326px;"><div style="box-sizing: border-box; font-size: 0; text-align: center; color: #000000; "><div style="display: inline-block; font-size: 12px; font-family: Helvetica; color: light-dark(#000000, #ffffff); line-height: 1.2; pointer-events: all; white-space: normal; word-wrap: normal; ">(wkorp.ru)</div></div></div></foreignObject><text x="355" y="239" fill="light-dark(#000000, #ffffff)" font-family="Helvetica" font-size="12px" text-anchor="middle">(wkorp.ru)</text></switch></g></g></g></g></g></g><switch><g requiredFeatures="http://www.w3.org/TR/SVG11/feature#Extensibility"/><a transform="translate(0,-5)" xlink:href="https://www.drawio.com/doc/faq/svg-export-text-problems" target="_blank"><text text-anchor="middle" font-size="10px" x="50%" y="100%">Text is not SVG - cannot display</text></a></switch></svg>