<?xml version="1.0" encoding="UTF-8"?>
<!-- Do not edit this file with editors other than draw.io -->
<!DOCTYPE svg PUBLIC "-//W3C//DTD SVG 1.1//EN" "http://www.w3.org/Graphics/SVG/1.1/DTD/svg11.dtd">
<svg xmlns="http://www.w3.org/2000/svg" style="background: #FFFFFF; background-color: #FFFFFF; color-scheme: light dark;" xmlns:xlink="http://www.w3.org/1999/xlink" version="1.1" width="714px" height="400px" viewBox="0 0 714 400" content="&lt;mxfile host=&quot;app.diagrams.net&quot;&gt;&#10;  &lt;diagram name=&quot;Страница-1&quot; id=&quot;u3kbmDc4rT6RhnqAFDLS&quot;&gt;&#10;    &lt;mxGraphModel dx=&quot;1925&quot; dy=&quot;1793&quot; grid=&quot;0&quot; gridSize=&quot;10&quot; guides=&quot;1&quot; tooltips=&quot;1&quot; connect=&quot;1&quot; arrows=&quot;1&quot; fold=&quot;1&quot; page=&quot;1&quot; pageScale=&quot;1&quot; pageWidth=&quot;827&quot; pageHeight=&quot;1169&quot; background=&quot;light-dark(#FFFFFF,#FFFFFF)&quot; math=&quot;0&quot; shadow=&quot;0&quot;&gt;&#10;      &lt;root&gt;&#10;        &lt;mxCell id=&quot;0&quot; /&gt;&#10;        &lt;mxCell id=&quot;1&quot; parent=&quot;0&quot; /&gt;&#10;        &lt;mxCell id=&quot;2HQ8kbWb5iDc99l9tAFg-34&quot; parent=&quot;1&quot; style=&quot;rounded=0;whiteSpace=wrap;html=1;&quot; value=&quot;&quot; vertex=&quot;1&quot;&gt;&#10;          &lt;mxGeometry height=&quot;130&quot; width=&quot;120&quot; x=&quot;140&quot; y=&quot;256&quot; as=&quot;geometry&quot; /&gt;&#10;        &lt;/mxCell&gt;&#10;        &lt;mxCell id=&quot;2HQ8kbWb5iDc99l9tAFg-2&quot; parent=&quot;1&quot; style=&quot;ellipse;shape=cloud;whiteSpace=wrap;html=1;fillStyle=auto;fillColor=#F5F7FA;strokeColor=#CBD5E1;&quot; value=&quot;Интернет&quot; vertex=&quot;1&quot;&gt;&#10;          &lt;mxGeometry height=&quot;80&quot; width=&quot;120&quot; x=&quot;140&quot; y=&quot;20&quot; as=&quot;geometry&quot; /&gt;&#10;        &lt;/mxCell&gt;&#10;        &lt;mxCell id=&quot;2HQ8kbWb5iDc99l9tAFg-3&quot; parent=&quot;1&quot; style=&quot;text;html=1;whiteSpace=wrap;strokeColor=none;fillColor=none;align=center;verticalAlign=middle;rounded=0;&quot; value=&quot;IP: 195.133.66.236&quot; vertex=&quot;1&quot;&gt;&#10;          &lt;mxGeometry height=&quot;20&quot; width=&quot;110&quot; x=&quot;145&quot; y=&quot;236&quot; as=&quot;geometry&quot; /&gt;&#10;        &lt;/mxCell&gt;&#10;        &lt;mxCell id=&quot;2HQ8kbWb5iDc99l9tAFg-28&quot; parent=&quot;1&quot; style=&quot;verticalLabelPosition=bottom;html=1;verticalAlign=top;align=center;strokeColor=#0288D1;fillColor=#E1F5FE;shape=mxgraph.azure.laptop;pointerEvents=1;&quot; value=&quot;&quot; vertex=&quot;1&quot;&gt;&#10;          &lt;mxGeometry height=&quot;30&quot; width=&quot;50&quot; x=&quot;-85&quot; y=&quot;192&quot; as=&quot;geometry&quot; /&gt;&#10;        &lt;/mxCell&gt;&#10;        &lt;mxCell id=&quot;2HQ8kbWb5iDc99l9tAFg-29&quot; parent=&quot;1&quot; style=&quot;text;html=1;whiteSpace=wrap;strokeColor=none;fillColor=none;align=center;verticalAlign=middle;rounded=0;&quot; value=&quot;Ноутбук DevOps&quot; vertex=&quot;1&quot;&gt;&#10;          &lt;mxGeometry height=&quot;18.5&quot; width=&quot;110&quot; x=&quot;-115&quot; y=&quot;222&quot; as=&quot;geometry&quot; /&gt;&#10;        &lt;/mxCell&gt;&#10;        &lt;mxCell id=&quot;2HQ8kbWb5iDc99l9tAFg-30&quot; parent=&quot;1&quot; style=&quot;sketch=0;aspect=fixed;pointerEvents=1;shadow=0;dashed=0;html=1;strokeColor=#E65100;labelPosition=center;verticalLabelPosition=bottom;verticalAlign=top;align=center;fillColor=#FFF3E0;shape=mxgraph.mscae.enterprise.client_application&quot; value=&quot;&quot; vertex=&quot;1&quot;&gt;&#10;          &lt;mxGeometry height=&quot;32&quot; width=&quot;50&quot; x=&quot;485&quot; y=&quot;-12&quot; as=&quot;geometry&quot; /&gt;&#10;        &lt;/mxCell&gt;&#10;        &lt;mxCell id=&quot;2HQ8kbWb5iDc99l9tAFg-31&quot; parent=&quot;1&quot; style=&quot;sketch=0;aspect=fixed;pointerEvents=1;shadow=0;dashed=0;html=1;strokeColor=#E65100;labelPosition=center;verticalLabelPosition=bottom;verticalAlign=top;align=center;fillColor=#FFF3E0;shape=mxgraph.azure.computer&quot; value=&quot;&quot; vertex=&quot;1&quot;&gt;&#10;          &lt;mxGeometry height=&quot;45&quot; width=&quot;50&quot; x=&quot;485&quot; y=&quot;37.5&quot; as=&quot;geometry&quot; /&gt;&#10;        &lt;/mxCell&gt;&#10;        &lt;mxCell id=&quot;2HQ8kbWb5iDc99l9tAFg-32&quot; parent=&quot;1&quot; style=&quot;sketch=0;aspect=fixed;pointerEvents=1;shadow=0;dashed=0;html=1;strokeColor=#E65100;labelPosition=center;verticalLabelPosition=bottom;verticalAlign=top;align=center;fillColor=#FFF3E0;shape=mxgraph.azure.mobile&quot; value=&quot;&quot; vertex=&quot;1&quot;&gt;&#10;          &lt;mxGeometry height=&quot;50&quot; width=&quot;35&quot; x=&quot;491&quot; y=&quot;100&quot; as=&quot;geometry&quot; /&gt;&#10;        &lt;/mxCell&gt;&#10;        &lt;mxCell id=&quot;2HQ8kbWb5iDc99l9tAFg-35&quot; parent=&quot;1&quot; style=&quot;text;html=1;whiteSpace=wrap;strokeColor=none;fillColor=none;align=center;verticalAlign=middle;rounded=0;&quot; value=&quot;SSH (Порт 22 TCP)&quot; vertex=&quot;1&quot;&gt;&#10;          &lt;mxGeometry height=&quot;20&quot; width=&quot;110&quot; x=&quot;6&quot; y=&quot;209&quot; as=&quot;geometry&quot; /&gt;&#10;        &lt;/mxCell&gt;&#10;        &lt;mxCell id=&quot;2HQ8kbWb5iDc99l9tAFg-36&quot; parent=&quot;1&quot; style=&quot;text;html=1;whiteSpace=wrap;strokeColor=none;fillColor=none;align=center;verticalAlign=middle;rounded=0;&quot; value=&quot;Клиенты сети&quot; vertex=&quot;1&quot;&gt;&#10;          &lt;mxGeometry height=&quot;20&quot; width=&quot;110&quot; x=&quot;453.5&quot; y=&quot;160&quot; as=&quot;geometry&quot; /&gt;&#10;        &lt;/mxCell&gt;&#10;        &lt;mxCell id=&quot;2HQ8kbWb5iDc99l9tAFg-37&quot; parent=&quot;1&quot; style=&quot;text;html=1;whiteSpace=wrap;strokeColor=none;fillColor=none;align=center;verticalAlign=middle;rounded=0;&quot; value=&quot;VPN IP: 10.8.0.10 - 10.8.0.254&quot; vertex=&quot;1&quot;&gt;&#10;          &lt;mxGeometry height=&quot;20&quot; width=&quot;180&quot; x=&quot;418.5&quot; y=&quot;180&quot; as=&quot;geometry&quot; /&gt;&#10;        &lt;/mxCell&gt;&#10;        &lt;mxCell id=&quot;2HQ8kbWb5iDc99l9tAFg-38&quot; parent=&quot;1&quot; style=&quot;sketch=0;aspect=fixed;pointerEvents=1;shadow=0;dashed=0;html=1;strokeColor=none;labelPosition=center;verticalLabelPosition=bottom;verticalAlign=top;align=center;fillColor=#00188D;shape=mxgraph.mscae.enterprise.firewall&quot; value=&quot;&quot; vertex=&quot;1&quot;&gt;&#10;          &lt;mxGeometry height=&quot;44&quot; width=&quot;50&quot; x=&quot;175&quot; y=&quot;185&quot; as=&quot;geometry&quot; /&gt;&#10;        &lt;/mxCell&gt;&#10;        &lt;mxCell id=&quot;2HQ8kbWb5iDc99l9tAFg-39&quot; parent=&quot;1&quot; style=&quot;text;html=1;whiteSpace=wrap;strokeColor=none;fillColor=none;align=center;verticalAlign=middle;rounded=0;&quot; value=&quot;wg.vpn.wkorp.ru&quot; vertex=&quot;1&quot;&gt;&#10;          &lt;mxGeometry height=&quot;20&quot; width=&quot;110&quot; x=&quot;144.5&quot; y=&quot;5&quot; as=&quot;geometry&quot; /&gt;&#10;        &lt;/mxCell&gt;&#10;        &lt;mxCell id=&quot;lfwxDCiQY-czttKrfWni-6&quot; edge=&quot;1&quot; parent=&quot;1&quot; source=&quot;2HQ8kbWb5iDc99l9tAFg-31&quot; style=&quot;edgeStyle=orthogonalEdgeStyle;rounded=0;orthogonalLoop=1;jettySize=auto;html=1;entryX=0.875;entryY=0.5;entryDx=0;entryDy=0;entryPerimeter=0;strokeColor=#E65100;dashed=1;&quot; target=&quot;2HQ8kbWb5iDc99l9tAFg-2&quot;&gt;&#10;          &lt;mxGeometry relative=&quot;1&quot; as=&quot;geometry&quot; /&gt;&#10;        &lt;/mxCell&gt;&#10;        &lt;mxCell id=&quot;lfwxDCiQY-czttKrfWni-7&quot; edge=&quot;1&quot; parent=&quot;1&quot; source=&quot;2HQ8kbWb5iDc99l9tAFg-32&quot; style=&quot;edgeStyle=orthogonalEdgeStyle;rounded=0;orthogonalLoop=1;jettySize=auto;html=1;entryX=0.875;entryY=0.5;entryDx=0;entryDy=0;entryPerimeter=0;strokeColor=#E65100;dashed=1;&quot; target=&quot;2HQ8kbWb5iDc99l9tAFg-2&quot;&gt;&#10;          &lt;mxGeometry relative=&quot;1&quot; as=&quot;geometry&quot;&gt;&#10;            &lt;Array as=&quot;points&quot;&gt;&#10;              &lt;mxPoint x=&quot;395&quot; y=&quot;116&quot; /&gt;&#10;              &lt;mxPoint x=&quot;395&quot; y=&quot;60&quot; /&gt;&#10;            &lt;/Array&gt;&#10;          &lt;/mxGeometry&gt;&#10;        &lt;/mxCell&gt;&#10;        &lt;mxCell id=&quot;lfwxDCiQY-czttKrfWni-8&quot; edge=&quot;1&quot; parent=&quot;1&quot; source=&quot;2HQ8kbWb5iDc99l9tAFg-2&quot; style=&quot;edgeStyle=orthogonalEdgeStyle;rounded=0;orthogonalLoop=1;jettySize=auto;html=1;entryX=0.5;entryY=0;entryDx=0;entryDy=0;entryPerimeter=0;strokeColor=#2E7D32;dashed=1;labelPosition=center;verticalLabelPosition=top;align=center;verticalAlign=bottom;&quot; target=&quot;2HQ8kbWb5iDc99l9tAFg-38&quot;&gt;&#10;          &lt;mxGeometry relative=&quot;1&quot; as=&quot;geometry&quot; /&gt;&#10;        &lt;/mxCell&gt;&#10;        &lt;mxCell id=&quot;lfwxDCiQY-czttKrfWni-11&quot; parent=&quot;1&quot; style=&quot;text;html=1;whiteSpace=wrap;strokeColor=none;fillColor=none;align=center;verticalAlign=middle;rounded=0;&quot; value=&quot;WireGuard&amp;lt;div&amp;gt;(Порт 51820 UDP)&amp;lt;/div&amp;gt;&quot; vertex=&quot;1&quot;&gt;&#10;          &lt;mxGeometry height=&quot;30&quot; width=&quot;109&quot; x=&quot;145.5&quot; y=&quot;120&quot; as=&quot;geometry&quot; /&gt;&#10;        &lt;/mxCell&gt;&#10;        &lt;mxCell id=&quot;lfwxDCiQY-czttKrfWni-13&quot; edge=&quot;1&quot; parent=&quot;1&quot; source=&quot;2HQ8kbWb5iDc99l9tAFg-30&quot; style=&quot;edgeStyle=orthogonalEdgeStyle;rounded=0;orthogonalLoop=1;jettySize=auto;html=1;entryX=0.875;entryY=0.5;entryDx=0;entryDy=0;entryPerimeter=0;strokeColor=#E65100;dashed=1;&quot; target=&quot;2HQ8kbWb5iDc99l9tAFg-2&quot;&gt;&#10;          &lt;mxGeometry relative=&quot;1&quot; as=&quot;geometry&quot;&gt;&#10;            &lt;Array as=&quot;points&quot;&gt;&#10;              &lt;mxPoint x=&quot;444&quot; y=&quot;4&quot; /&gt;&#10;              &lt;mxPoint x=&quot;444&quot; y=&quot;60&quot; /&gt;&#10;            &lt;/Array&gt;&#10;          &lt;/mxGeometry&gt;&#10;        &lt;/mxCell&gt;&#10;        &lt;mxCell id=&quot;lfwxDCiQY-czttKrfWni-15&quot; edge=&quot;1&quot; parent=&quot;1&quot; source=&quot;2HQ8kbWb5iDc99l9tAFg-28&quot; style=&quot;edgeStyle=orthogonalEdgeStyle;rounded=0;orthogonalLoop=1;jettySize=auto;html=1;entryX=0;entryY=0.5;entryDx=0;entryDy=0;entryPerimeter=0;strokeColor=#0288D1;&quot; target=&quot;2HQ8kbWb5iDc99l9tAFg-38&quot;&gt;&#10;          &lt;mxGeometry relative=&quot;1&quot; as=&quot;geometry&quot; /&gt;&#10;        &lt;/mxCell&gt;&#10;        &lt;mxCell id=&quot;lfwxDCiQY-czttKrfWni-16&quot; edge=&quot;1&quot; parent=&quot;1&quot; source=&quot;2HQ8kbWb5iDc99l9tAFg-28&quot; style=&quot;edgeStyle=orthogonalEdgeStyle;rounded=0;orthogonalLoop=1;jettySize=auto;html=1;entryX=0.16;entryY=0.55;entryDx=0;entryDy=0;entryPerimeter=0;dashed=1;strokeColor=#0288D1;&quot; target=&quot;2HQ8kbWb5iDc99l9tAFg-2&quot;&gt;&#10;          &lt;mxGeometry relative=&quot;1&quot; as=&quot;geometry&quot;&gt;&#10;            &lt;Array as=&quot;points&quot;&gt;&#10;              &lt;mxPoint y=&quot;207&quot; /&gt;&#10;              &lt;mxPoint y=&quot;64&quot; /&gt;&#10;            &lt;/Array&gt;&#10;          &lt;/mxGeometry&gt;&#10;        &lt;/mxCell&gt;&#10;      &lt;/root&gt;&#10;    &lt;/mxGraphModel&gt;&#10;  &lt;/diagram&gt;&#10;&lt;/mxfile&gt;&#10;" resource="https://app.diagrams.net/#Hmapsvk%2Fsilver-note%2Fmain%2Fproject-timeweb%2Fscheme-01.svg#%7B%22pageId%22%3A%22u3kbmDc4rT6RhnqAFDLS%22%7D"><defs/><rect fill="#FFFFFF" width="100%" height="100%" x="0" y="0" style="fill: rgb(255, 255, 255);"/><g><g data-cell-id="0"><g data-cell-id="1"><g data-cell-id="2HQ8kbWb5iDc99l9tAFg-34"><g transform="translate(0.5,0.5)"><rect x="255" y="268" width="120" height="130" fill="#ffffff" stroke="#000000" pointer-events="all" style="fill: light-dark(#ffffff, var(--ge-dark-color, #121212)); stroke: light-dark(rgb(0, 0, 0), rgb(255, 255, 255));"/></g></g><g data-cell-id="2HQ8kbWb5iDc99l9tAFg-2"><g transform="translate(0.5,0.5)"><path d="M 285 52 C 261 52 255 72 274.2 76 C 255 84.8 276.6 104 292.2 96 C 303 112 339 112 351 96 C 375 96 375 80 360 72 C 375 56 351 40 330 48 C 315 36 291 36 285 52 Z" fill="#f5f7fa" stroke="#cbd5e1" stroke-miterlimit="10" pointer-events="all" style="fill: light-dark(rgb(245, 247, 250), rgb(24, 25, 28)); stroke: light-dark(rgb(203, 213, 225), rgb(47, 56, 66));"/></g><g><g><switch><foreignObject style="overflow: visible; text-align: left;" pointer-events="none" width="100%" height="100%" requiredFeatures="http://www.w3.org/TR/SVG11/feature#Extensibility"><div xmlns="http://www.w3.org/1999/xhtml" style="display: flex; align-items: unsafe center; justify-content: unsafe center; width: 118px; height: 1px; padding-top: 72px; margin-left: 256px;"><div style="box-sizing: border-box; font-size: 0; text-align: center; color: #000000; "><div style="display: inline-block; font-size: 12px; font-family: Helvetica; color: light-dark(#000000, #ffffff); line-height: 1.2; pointer-events: all; white-space: normal; word-wrap: normal; ">Интернет</div></div></div></foreignObject><text x="315" y="76" fill="light-dark(#000000, #ffffff)" font-family="Helvetica" font-size="12px" text-anchor="middle">Интернет</text></switch></g></g></g><g data-cell-id="2HQ8kbWb5iDc99l9tAFg-3"><g transform="translate(0.5,0.5)"><rect x="260" y="248" width="110" height="20" fill="none" stroke="none" pointer-events="all"/></g><g><g><switch><foreignObject style="overflow: visible; text-align: left;" pointer-events="none" width="100%" height="100%" requiredFeatures="http://www.w3.org/TR/SVG11/feature#Extensibility"><div xmlns="http://www.w3.org/1999/xhtml" style="display: flex; align-items: unsafe center; justify-content: unsafe center; width: 108px; height: 1px; padding-top: 258px; margin-left: 261px;"><div style="box-sizing: border-box; font-size: 0; text-align: center; color: #000000; "><div style="display: inline-block; font-size: 12px; font-family: Helvetica; color: light-dark(#000000, #ffffff); line-height: 1.2; pointer-events: all; white-space: normal; word-wrap: normal; ">IP: 195.133.66.236</div></div></div></foreignObject><text x="315" y="262" fill="light-dark(#000000, #ffffff)" font-family="Helvetica" font-size="12px" text-anchor="middle">IP: 195.133.66.236</text></switch></g></g></g><g data-cell-id="2HQ8kbWb5iDc99l9tAFg-28"><g transform="translate(0.5,0.5)"><rect x="30" y="204" width="50" height="30" fill="none" stroke="none" pointer-events="all"/><path d="M 34.24 227.27 L 34.24 205.35 C 34.55 204.62 35.21 204.11 35.99 204 L 73.86 204 C 74.82 204.11 75.6 204.81 75.81 205.74 L 75.81 227.27 L 79.82 231.61 C 80 232.15 79.83 232.71 79.35 233.16 C 78.88 233.62 78.14 233.92 77.32 234 L 32.73 234 C 31.9 233.93 31.15 233.63 30.66 233.18 C 30.18 232.72 30 232.15 30.18 231.61 Z M 35.89 227.27 L 74.31 227.32 L 74.31 206.19 C 74.13 205.66 73.66 205.28 73.1 205.2 L 36.9 205.2 C 36.35 205.38 35.96 205.87 35.89 206.44 Z M 51.14 230.21 L 49.78 232.16 L 59.21 232.16 L 58.16 230.21 Z" fill="#e1f5fe" stroke="#0288d1" stroke-miterlimit="10" pointer-events="all" style="fill: light-dark(rgb(225, 245, 254), rgb(15, 33, 40)); stroke: light-dark(rgb(2, 136, 209), rgb(45, 160, 223));"/></g></g><g data-cell-id="2HQ8kbWb5iDc99l9tAFg-29"><g transform="translate(0.5,0.5)"><rect x="0" y="234" width="110" height="18.5" fill="none" stroke="none" pointer-events="all"/></g><g><g><switch><foreignObject style="overflow: visible; text-align: left;" pointer-events="none" width="100%" height="100%" requiredFeatures="http://www.w3.org/TR/SVG11/feature#Extensibility"><div xmlns="http://www.w3.org/1999/xhtml" style="display: flex; align-items: unsafe center; justify-content: unsafe center; width: 108px; height: 1px; padding-top: 243px; margin-left: 1px;"><div style="box-sizing: border-box; font-size: 0; text-align: center; color: #000000; "><div style="display: inline-block; font-size: 12px; font-family: Helvetica; color: light-dark(#000000, #ffffff); line-height: 1.2; pointer-events: all; white-space: normal; word-wrap: normal; ">Ноутбук DevOps</div></div></div></foreignObject><text x="55" y="247" fill="light-dark(#000000, #ffffff)" font-family="Helvetica" font-size="12px" text-anchor="middle">Ноутбук DevOps</text></switch></g></g></g><g data-cell-id="2HQ8kbWb5iDc99l9tAFg-30"><g transform="translate(0.5,0.5)"><rect x="600" y="0" width="50" height="32" fill="none" stroke="none" pointer-events="all"/><path d="M 602.12 31.99 C 601.51 32 600.93 31.74 600.54 31.26 C 600.15 30.79 600 30.17 600.12 29.57 L 604.13 25.08 L 604.13 2.93 C 604.4 1.21 605.61 0 606.98 0.1 L 644.54 0.1 C 645.36 0.66 645.91 1.73 645.99 2.93 L 645.99 25.03 L 649.94 29.77 C 650 30.32 649.83 30.87 649.47 31.29 C 649.11 31.71 648.59 31.96 648.04 31.99 Z M 620.25 29.67 C 620.19 29.88 620.53 30.08 621.1 30.17 L 629.11 30.12 C 629.54 30.02 629.77 29.85 629.71 29.67 L 628.81 28.26 C 628.55 28.06 628.24 27.95 627.91 27.95 L 622.1 27.95 C 621.75 27.96 621.42 28.08 621.15 28.31 Z M 605.68 24.82 L 644.44 24.82 L 644.44 2.67 C 644.3 2.23 643.97 1.88 643.54 1.72 L 606.98 1.72 C 606.33 1.79 605.8 2.28 605.68 2.93 Z M 611.24 23.21 L 611.24 4.14 L 639.63 4.14 L 639.63 23.21 Z M 612.79 21.6 L 619.15 21.6 L 619.15 9.74 L 612.79 9.74 Z M 620.7 9.74 L 620.7 21.7 L 638.13 21.7 L 638.13 9.74 Z M 625.46 20.03 L 625.46 18.47 L 634.07 18.47 L 634.07 20.03 Z M 634.07 17.56 L 625.46 17.56 L 625.46 16.15 L 634.07 16.15 Z M 625.46 15.24 L 625.46 13.72 L 634.07 13.72 L 634.07 15.24 Z M 634.07 12.82 L 625.46 12.82 L 625.46 11.3 L 634.07 11.3 Z" fill="#fff3e0" stroke="#e65100" stroke-miterlimit="10" pointer-events="all" style="fill: light-dark(rgb(255, 243, 224), rgb(36, 26, 9)); stroke: light-dark(rgb(230, 81, 0), rgb(251, 123, 53));"/></g></g><g data-cell-id="2HQ8kbWb5iDc99l9tAFg-31"><g transform="translate(0.5,0.5)"><rect x="600" y="49.5" width="50" height="45" fill="none" stroke="none" pointer-events="all"/><path d="M 602.33 85.05 C 601.66 84.99 601.05 84.67 600.62 84.16 C 600.2 83.66 600 83.01 600.07 82.36 L 600.07 52.01 C 600.17 50.75 601.15 49.74 602.43 49.56 L 647.14 49.56 C 648.61 49.5 649.87 50.58 650 52.01 L 649.95 82.85 C 649.66 84.15 648.5 85.09 647.14 85.15 L 631.46 85.15 L 630.76 87.94 C 630.6 88.58 630.71 89.26 631.07 89.83 C 631.43 90.39 632.01 90.79 632.67 90.93 C 634.19 91.43 635.79 91.65 637.39 91.56 L 640.31 91.56 L 640.31 94.5 L 607.71 94.5 L 607.71 91.56 L 611.17 91.56 C 612.99 91.57 614.79 91.28 616.5 90.68 C 617.84 90.37 618.67 89.05 618.35 87.74 L 617.9 85.15 Z M 603.79 81.53 L 646.13 81.53 L 646.13 53.33 L 603.79 53.33 Z" fill="#fff3e0" stroke="#e65100" stroke-miterlimit="10" pointer-events="all" style="fill: light-dark(rgb(255, 243, 224), rgb(36, 26, 9)); stroke: light-dark(rgb(230, 81, 0), rgb(251, 123, 53));"/></g></g><g data-cell-id="2HQ8kbWb5iDc99l9tAFg-32"><g transform="translate(0.5,0.5)"><rect x="606" y="112" width="35" height="50" fill="none" stroke="none" pointer-events="all"/><path d="M 606.09 115.88 C 606 114.86 606.37 113.85 607.11 113.12 C 607.85 112.38 608.89 112 609.94 112.06 L 637.36 112.06 C 639.31 112.06 640.92 113.54 641 115.43 L 641 158.83 C 640.9 160.34 639.81 161.61 638.29 162 L 608.9 162 C 607.46 161.7 606.35 160.59 606.09 159.18 Z M 617.64 113.72 C 617.19 113.86 616.88 114.27 616.88 114.73 C 616.88 115.19 617.19 115.59 617.64 115.73 L 629.61 115.73 C 630.06 115.59 630.37 115.19 630.37 114.73 C 630.37 114.27 630.06 113.86 629.61 113.72 Z M 609.58 117.24 L 609.58 153.35 L 637.62 153.35 L 637.62 117.24 Z M 620.76 156.47 C 620.12 156.47 619.59 156.97 619.59 157.6 C 619.59 158.22 620.12 158.73 620.76 158.73 L 626.64 158.73 C 627.29 158.73 627.81 158.22 627.81 157.6 C 627.81 156.97 627.29 156.47 626.64 156.47 Z" fill="#fff3e0" stroke="#e65100" stroke-miterlimit="10" pointer-events="all" style="fill: light-dark(rgb(255, 243, 224), rgb(36, 26, 9)); stroke: light-dark(rgb(230, 81, 0), rgb(251, 123, 53));"/></g></g><g data-cell-id="2HQ8kbWb5iDc99l9tAFg-35"><g transform="translate(0.5,0.5)"><rect x="121" y="221" width="110" height="20" fill="none" stroke="none" pointer-events="all"/></g><g><g><switch><foreignObject style="overflow: visible; text-align: left;" pointer-events="none" width="100%" height="100%" requiredFeatures="http://www.w3.org/TR/SVG11/feature#Extensibility"><div xmlns="http://www.w3.org/1999/xhtml" style="display: flex; align-items: unsafe center; justify-content: unsafe center; width: 108px; height: 1px; padding-top: 231px; margin-left: 122px;"><div style="box-sizing: border-box; font-size: 0; text-align: center; color: #000000; "><div style="display: inline-block; font-size: 12px; font-family: Helvetica; color: light-dark(#000000, #ffffff); line-height: 1.2; pointer-events: all; white-space: normal; word-wrap: normal; ">SSH (Порт 22 TCP)</div></div></div></foreignObject><text x="176" y="235" fill="light-dark(#000000, #ffffff)" font-family="Helvetica" font-size="12px" text-anchor="middle">SSH (Порт 22 TCP)</text></switch></g></g></g><g data-cell-id="2HQ8kbWb5iDc99l9tAFg-36"><g transform="translate(0.5,0.5)"><rect x="568.5" y="172" width="110" height="20" fill="none" stroke="none" pointer-events="all"/></g><g><g><switch><foreignObject style="overflow: visible; text-align: left;" pointer-events="none" width="100%" height="100%" requiredFeatures="http://www.w3.org/TR/SVG11/feature#Extensibility"><div xmlns="http://www.w3.org/1999/xhtml" style="display: flex; align-items: unsafe center; justify-content: unsafe center; width: 108px; height: 1px; padding-top: 182px; margin-left: 570px;"><div style="box-sizing: border-box; font-size: 0; text-align: center; color: #000000; "><div style="display: inline-block; font-size: 12px; font-family: Helvetica; color: light-dark(#000000, #ffffff); line-height: 1.2; pointer-events: all; white-space: normal; word-wrap: normal; ">Клиенты сети</div></div></div></foreignObject><text x="624" y="186" fill="light-dark(#000000, #ffffff)" font-family="Helvetica" font-size="12px" text-anchor="middle">Клиенты сети</text></switch></g></g></g><g data-cell-id="2HQ8kbWb5iDc99l9tAFg-37"><g transform="translate(0.5,0.5)"><rect x="533.5" y="192" width="180" height="20" fill="none" stroke="none" pointer-events="all"/></g><g><g><switch><foreignObject style="overflow: visible; text-align: left;" pointer-events="none" width="100%" height="100%" requiredFeatures="http://www.w3.org/TR/SVG11/feature#Extensibility"><div xmlns="http://www.w3.org/1999/xhtml" style="display: flex; align-items: unsafe center; justify-content: unsafe center; width: 178px; height: 1px; padding-top: 202px; margin-left: 535px;"><div style="box-sizing: border-box; font-size: 0; text-align: center; color: #000000; "><div style="display: inline-block; font-size: 12px; font-family: Helvetica; color: light-dark(#000000, #ffffff); line-height: 1.2; pointer-events: all; white-space: normal; word-wrap: normal; ">VPN IP: 10.8.0.10 - 10.8.0.254</div></div></div></foreignObject><text x="624" y="206" fill="light-dark(#000000, #ffffff)" font-family="Helvetica" font-size="12px" text-anchor="middle">VPN IP: 10.8.0.10 - 10.8.0.254</text></switch></g></g></g><g data-cell-id="2HQ8kbWb5iDc99l9tAFg-38"><g transform="translate(0.5,0.5)"><rect x="290" y="197" width="50" height="44" fill="none" stroke="none" pointer-events="all"/><path d="M 290 241 L 290 231.01 L 313.64 231.01 L 313.64 241 Z M 315 231.01 L 340 231.01 L 340 241 L 315 241 Z M 327.5 229.75 L 327.5 219.71 L 340 219.71 L 340 229.75 Z M 326.04 219.71 L 326.04 229.75 L 303.91 229.75 L 303.91 219.71 Z M 302.55 229.75 L 290 229.75 L 290 219.66 L 302.55 219.66 Z M 313.59 218.44 L 290 218.44 L 290 208.4 L 313.59 208.4 Z M 315 208.4 L 340 208.4 L 340 218.44 L 315.1 218.44 Z M 327.5 207.09 L 327.5 197 L 340 197 L 340 207.09 Z M 326.04 197.05 L 326.04 207.09 L 303.91 207.09 L 303.91 197.05 Z M 302.45 207.09 L 290 207.09 L 290 197.05 L 302.45 197.05 Z" fill="#00188d" stroke="none" pointer-events="all" style="fill: light-dark(rgb(0, 24, 141), rgb(191, 211, 255));"/></g></g><g data-cell-id="2HQ8kbWb5iDc99l9tAFg-39"><g transform="translate(0.5,0.5)"><rect x="259.5" y="17" width="110" height="20" fill="none" stroke="none" pointer-events="all"/></g><g><g><switch><foreignObject style="overflow: visible; text-align: left;" pointer-events="none" width="100%" height="100%" requiredFeatures="http://www.w3.org/TR/SVG11/feature#Extensibility"><div xmlns="http://www.w3.org/1999/xhtml" style="display: flex; align-items: unsafe center; justify-content: unsafe center; width: 108px; height: 1px; padding-top: 27px; margin-left: 261px;"><div style="box-sizing: border-box; font-size: 0; text-align: center; color: #000000; "><div style="display: inline-block; font-size: 12px; font-family: Helvetica; color: light-dark(#000000, #ffffff); line-height: 1.2; pointer-events: all; white-space: normal; word-wrap: normal; ">wg.vpn.wkorp.ru</div></div></div></foreignObject><text x="315" y="31" fill="light-dark(#000000, #ffffff)" font-family="Helvetica" font-size="12px" text-anchor="middle">wg.vpn.wkorp.ru</text></switch></g></g></g><g data-cell-id="lfwxDCiQY-czttKrfWni-6"><g transform="translate(0.5,0.5)"><path d="M 600 72 L 366.37 72" fill="none" stroke="#e65100" stroke-miterlimit="10" stroke-dasharray="3 3" pointer-events="stroke" style="stroke: light-dark(rgb(230, 81, 0), rgb(251, 123, 53));"/><path d="M 361.12 72 L 368.12 68.5 L 366.37 72 L 368.12 75.5 Z" fill="#e65100" stroke="#e65100" stroke-miterlimit="10" pointer-events="all" style="fill: light-dark(rgb(230, 81, 0), rgb(251, 123, 53)); stroke: light-dark(rgb(230, 81, 0), rgb(251, 123, 53));"/></g></g><g data-cell-id="lfwxDCiQY-czttKrfWni-7"><g transform="translate(0.5,0.5)"><path d="M 606 128 L 510 128 L 510 72 L 366.37 72" fill="none" stroke="#e65100" stroke-miterlimit="10" stroke-dasharray="3 3" pointer-events="stroke" style="stroke: light-dark(rgb(230, 81, 0), rgb(251, 123, 53));"/><path d="M 361.12 72 L 368.12 68.5 L 366.37 72 L 368.12 75.5 Z" fill="#e65100" stroke="#e65100" stroke-miterlimit="10" pointer-events="all" style="fill: light-dark(rgb(230, 81, 0), rgb(251, 123, 53)); stroke: light-dark(rgb(230, 81, 0), rgb(251, 123, 53));"/></g></g><g data-cell-id="lfwxDCiQY-czttKrfWni-8"><g transform="translate(0.5,0.5)"><path d="M 315 112 L 315 190.63" fill="none" stroke="#2e7d32" stroke-miterlimit="10" stroke-dasharray="3 3" pointer-events="stroke" style="stroke: light-dark(rgb(46, 125, 50), rgb(100, 168, 104));"/><path d="M 315 195.88 L 311.5 188.88 L 315 190.63 L 318.5 188.88 Z" fill="#2e7d32" stroke="#2e7d32" stroke-miterlimit="10" pointer-events="all" style="fill: light-dark(rgb(46, 125, 50), rgb(100, 168, 104)); stroke: light-dark(rgb(46, 125, 50), rgb(100, 168, 104));"/></g></g><g data-cell-id="lfwxDCiQY-czttKrfWni-11"><g transform="translate(0.5,0.5)"><rect x="260.5" y="132" width="109" height="30" fill="none" stroke="none" pointer-events="all"/></g><g><g><switch><foreignObject style="overflow: visible; text-align: left;" pointer-events="none" width="100%" height="100%" requiredFeatures="http://www.w3.org/TR/SVG11/feature#Extensibility"><div xmlns="http://www.w3.org/1999/xhtml" style="display: flex; align-items: unsafe center; justify-content: unsafe center; width: 107px; height: 1px; padding-top: 147px; margin-left: 262px;"><div style="box-sizing: border-box; font-size: 0; text-align: center; color: #000000; "><div style="display: inline-block; font-size: 12px; font-family: Helvetica; color: light-dark(#000000, #ffffff); line-height: 1.2; pointer-events: all; white-space: normal; word-wrap: normal; ">WireGuard<div>(Порт 51820 UDP)</div></div></div></div></foreignObject><text x="315" y="151" fill="light-dark(#000000, #ffffff)" font-family="Helvetica" font-size="12px" text-anchor="middle">WireGuard...</text></switch></g></g></g><g data-cell-id="lfwxDCiQY-czttKrfWni-13"><g transform="translate(0.5,0.5)"><path d="M 600 16 L 559 16 L 559 72 L 366.37 72" fill="none" stroke="#e65100" stroke-miterlimit="10" stroke-dasharray="3 3" pointer-events="stroke" style="stroke: light-dark(rgb(230, 81, 0), rgb(251, 123, 53));"/><path d="M 361.12 72 L 368.12 68.5 L 366.37 72 L 368.12 75.5 Z" fill="#e65100" stroke="#e65100" stroke-miterlimit="10" pointer-events="all" style="fill: light-dark(rgb(230, 81, 0), rgb(251, 123, 53)); stroke: light-dark(rgb(230, 81, 0), rgb(251, 123, 53));"/></g></g><g data-cell-id="lfwxDCiQY-czttKrfWni-15"><g transform="translate(0.5,0.5)"><path d="M 80 219 L 283.63 219" fill="none" stroke="#0288d1" stroke-miterlimit="10" pointer-events="stroke" style="stroke: light-dark(rgb(2, 136, 209), rgb(45, 160, 223));"/><path d="M 288.88 219 L 281.88 222.5 L 283.63 219 L 281.88 215.5 Z" fill="#0288d1" stroke="#0288d1" stroke-miterlimit="10" pointer-events="all" style="fill: light-dark(rgb(2, 136, 209), rgb(45, 160, 223)); stroke: light-dark(rgb(2, 136, 209), rgb(45, 160, 223));"/></g></g><g data-cell-id="lfwxDCiQY-czttKrfWni-16"><g transform="translate(0.5,0.5)"><path d="M 80 219 L 115 219 L 115 76 L 267.83 76" fill="none" stroke="#0288d1" stroke-miterlimit="10" stroke-dasharray="3 3" pointer-events="stroke" style="stroke: light-dark(rgb(2, 136, 209), rgb(45, 160, 223));"/><path d="M 273.08 76 L 266.08 79.5 L 267.83 76 L 266.08 72.5 Z" fill="#0288d1" stroke="#0288d1" stroke-miterlimit="10" pointer-events="all" style="fill: light-dark(rgb(2, 136, 209), rgb(45, 160, 223)); stroke: light-dark(rgb(2, 136, 209), rgb(45, 160, 223));"/></g></g></g></g></g><switch><g requiredFeatures="http://www.w3.org/TR/SVG11/feature#Extensibility"/><a transform="translate(0,-5)" xlink:href="https://www.drawio.com/doc/faq/svg-export-text-problems" target="_blank"><text text-anchor="middle" font-size="10px" x="50%" y="100%">Text is not SVG - cannot display</text></a></switch></svg>